<?xml version="1.0" encoding="UTF-8" standalone="no"?>
<svg
   xmlns:dc="http://purl.org/dc/elements/1.1/"
   xmlns:cc="http://creativecommons.org/ns#"
   xmlns:rdf="http://www.w3.org/1999/02/22-rdf-syntax-ns#"
   xmlns:svg="http://www.w3.org/2000/svg"
   xmlns="http://www.w3.org/2000/svg"
   xmlns:sodipodi="http://sodipodi.sourceforge.net/DTD/sodipodi-0.dtd"
   xmlns:inkscape="http://www.inkscape.org/namespaces/inkscape"
   width="150.13525mm"
   height="150.13525mm"
   viewBox="0 0 150.13525 150.13525"
   version="1.1"
   id="svg6422"
   inkscape:version="1.0.2-2 (e86c870879, 2021-01-15)"
   sodipodi:docname="1514668424_testi.svg">
  <defs
     id="defs6416" />
  <sodipodi:namedview
     id="base"
     pagecolor="#ffffff"
     bordercolor="#666666"
     borderopacity="1.0"
     inkscape:pageopacity="0.0"
     inkscape:pageshadow="2"
     inkscape:zoom="0.51445126"
     inkscape:cx="679.28871"
     inkscape:cy="17.786474"
     inkscape:document-units="mm"
     inkscape:current-layer="layer1"
     showgrid="false"
     inkscape:snap-global="false"
     inkscape:window-width="1920"
     inkscape:window-height="1057"
     inkscape:window-x="-8"
     inkscape:window-y="-8"
     inkscape:window-maximized="1"
     fit-margin-top="0"
     fit-margin-left="0"
     fit-margin-right="0"
     fit-margin-bottom="0"
     inkscape:document-rotation="0" />
  <metadata
     id="metadata6419">
    <rdf:RDF>
      <cc:Work
         rdf:about="">
        <dc:format>image/svg+xml</dc:format>
        <dc:type
           rdf:resource="http://purl.org/dc/dcmitype/StillImage" />
        <dc:title></dc:title>
      </cc:Work>
    </rdf:RDF>
  </metadata>
  <g
     inkscape:label="Layer 1"
     inkscape:groupmode="layer"
     id="layer1"
     transform="translate(-263.6035,-66.681308)">
    <path
       style="fill:#8eb4d0;fill-opacity:1;fill-rule:evenodd;stroke:none;stroke-width:0.334142px;stroke-linecap:butt;stroke-linejoin:miter;stroke-opacity:1"
       d="m 384.29388,193.83579 0.98245,-5.59614 2.24557,-3.13384 16.84181,-21.93686 1.54385,-21.93683 -1.68418,-0.22385 -1.6842,-9.40152 -3.92975,-6.26766 -6.59637,-9.8492 -6.17534,-6.49152 -8.98229,-5.81998 -2.80699,-0.44769 -7.85952,-11.639958 -9.96474,-11.863806 -11.92962,-6.715364 -12.77171,-2.4623 -5.33326,0.895384 -3.64904,3.357682 -8.56127,-2.462304 -6.03498,-3.80537 h -6.45604 l -2.24556,5.372292 -7.99988,-0.895384 -5.33325,2.686143 -4.9122,4.700756 -0.98242,9.625352 -0.56138,1.790765 -2.2456,2.909989 -7.99985,4.253064 -3.36838,1.343072 -1.26312,8.282277 1.40348,8.72998 6.31568,22.16068 5.05255,2.91001 2.24557,3.80536 3.50871,1.79076 4.63149,-0.67152 50.9465,48.12674 15.29801,8.95383 15.5787,4.47689 z"
       id="path6999"
       inkscape:connector-curvature="0" />
    <path
       style="fill:#e6d961;fill-opacity:1;fill-rule:evenodd;stroke:none;stroke-width:0.334142px;stroke-linecap:butt;stroke-linejoin:miter;stroke-opacity:1"
       d="m 322.25985,77.660015 -0.2807,-8.506124 -3.64907,1.790765 -8.28054,6.939208 v 6.043825 l -0.70176,3.133835 2.24557,0.447693 z"
       id="path6995"
       inkscape:connector-curvature="0" />
    <path
       style="fill:#e6d961;fill-opacity:1;fill-rule:evenodd;stroke:none;stroke-width:0.334142px;stroke-linecap:butt;stroke-linejoin:miter;stroke-opacity:1"
       d="m 388.50435,150.63361 -1.12281,-4.4769 0.2807,-3.80538 -0.70173,-1.11921 -8.9823,8.28226 -0.42106,10.52074 1.40348,2.01462 5.75431,-6.49152 z"
       id="path6997"
       inkscape:connector-curvature="0" />
    <path
       style="fill:#cccccc;fill-rule:evenodd;stroke:none;stroke-width:0.334142px;stroke-linecap:butt;stroke-linejoin:miter;stroke-opacity:1"
       d="m 404.36371,163.16895 4.35081,-12.08764 -0.84209,-5.37229 -1.54384,-3.58153 -2.38591,-0.67153 -0.42106,3.58152 -0.70174,2.23845 -1.54382,3.58153 -3.50872,4.25306 -1.26314,1.56693 -1.54384,-1.56693 -0.42103,0.89539 v 7.16304 l -10.24545,13.20689 -0.70175,0.89538 -1.12278,-1.56692 -1.68418,-3.13383 -1.40348,-0.89538 -1.12279,1.11923 0.42103,10.29688 -6.87706,5.81999 -6.03498,3.58152 -3.22801,0.67153 -3.78942,-0.44769 -0.84209,3.58153 0.14034,4.47691 2.80696,5.37229 24.98205,-13.20688 -0.56139,-4.4769 4.6315,-5.59614 7.01743,-8.28228 z"
       id="path7001"
       inkscape:connector-curvature="0" />
    <path
       style="fill:#ffffff;fill-rule:evenodd;stroke:none;stroke-width:0.334142px;stroke-linecap:butt;stroke-linejoin:miter;stroke-opacity:1"
       d="m 350.89096,201.22269 -2.94733,-9.84922 -1.68421,2.23847 -2.1052,0.89539 -2.38593,-4.92462 -1.26315,-4.25305 0.5614,-4.25307 -5.19289,-1.79076 0.42106,12.53534 4.91219,5.81998 5.47358,4.4769 h 1.40348 z"
       id="path7003"
       inkscape:connector-curvature="0" />
    <path
       style="fill:#ffffff;fill-rule:evenodd;stroke:none;stroke-width:0.334142px;stroke-linecap:butt;stroke-linejoin:miter;stroke-opacity:1"
       d="m 287.17271,145.93286 -3.7894,2.01461 -3.36836,-1.79076 -3.78941,-4.70075 -4.0701,-11.41612 2.52626,-7.83458 2.66663,2.68614 1.54384,2.4623 -1.6842,1.79076 v 4.02923 l 3.36837,8.9538 1.68418,0.89539 2.80697,-3.35769 z"
       id="path7005"
       inkscape:connector-curvature="0" />
    <path
       style="fill:#cccccc;fill-opacity:1;fill-rule:evenodd;stroke:none;stroke-width:0.334142px;stroke-linecap:butt;stroke-linejoin:miter;stroke-opacity:1"
       d="m 272.57647,130.48754 -3.78941,-3.35769 -0.84209,-5.37229 -2.24556,-5.14844 -1.68418,4.25305 0.14033,5.14847 1.68418,4.25305 3.36838,4.02921 4.91219,4.9246 z"
       id="path7007"
       inkscape:connector-curvature="0" />
    <path
       style="fill:#cbb2b6;fill-opacity:1;fill-rule:evenodd;stroke:none;stroke-width:0.334142px;stroke-linecap:butt;stroke-linejoin:miter;stroke-opacity:1"
       d="m 372.6557,114.74536 -2.34372,-6.37674 -2.06801,-4.39775 -1.51654,-0.21989 -3.17092,3.29831 -13.7867,15.39213 -1.10294,3.73808 1.93013,10.5546 2.4816,1.53921 5.10108,-4.61763 1.10294,-1.53923 1.79226,-0.65965 5.79042,-7.0364 4.82533,-7.25629 z"
       id="path7009"
       inkscape:connector-curvature="0" />
    <path
       style="fill:#cbb2b6;fill-opacity:1;fill-rule:evenodd;stroke:none;stroke-width:0.334142px;stroke-linecap:butt;stroke-linejoin:miter;stroke-opacity:1"
       d="m 337.91327,145.30971 -0.55147,-7.0364 -2.75736,-4.39775 -4.41173,-5.93697 -3.03308,-2.63865 -5.51467,-3.73807 -1.65441,-3.51821 -9.37494,-6.15685 -8.96135,-5.71707 -2.34374,1.97899 -1.51654,4.17786 0.13787,4.17786 8.68562,7.69605 4.82534,4.17788 3.17094,2.85853 6.20402,4.83753 11.85654,8.35572 z"
       id="path7011"
       inkscape:connector-curvature="0" />
    <path
       style="opacity:1;fill:#800000;fill-opacity:1;fill-rule:nonzero;stroke:none;stroke-width:0.32523;stroke-miterlimit:4;stroke-dasharray:none;stroke-opacity:1"
       id="path7013"
       sodipodi:type="arc"
       sodipodi:cx="-399.07227"
       sodipodi:cy="143.34303"
       sodipodi:rx="1.6490031"
       sodipodi:ry="4.8416553"
       sodipodi:start="1.5781756"
       sodipodi:end="1.5615269"
       sodipodi:open="true"
       d="m -399.08443,148.18456 a 1.6490031,4.8416553 0 0 1 -1.63683,-4.8571 1.6490031,4.8416553 0 0 1 1.64744,-4.82608 1.6490031,4.8416553 0 0 1 1.65054,4.81693 1.6490031,4.8416553 0 0 1 -1.6337,4.86617"
       sodipodi:arc-type="arc"
       transform="scale(-1,1)" />
    <path
       style="opacity:1;fill:#800000;fill-opacity:1;fill-rule:nonzero;stroke:none;stroke-width:0.344277;stroke-miterlimit:4;stroke-dasharray:none;stroke-opacity:1"
       id="path7013-3"
       sodipodi:type="arc"
       sodipodi:cx="-367.9122"
       sodipodi:cy="179.12636"
       sodipodi:rx="1.8478024"
       sodipodi:ry="4.8416553"
       sodipodi:start="1.5781756"
       sodipodi:end="1.5615269"
       sodipodi:open="true"
       d="m -367.92584,183.96788 a 1.8478024,4.8416553 0 0 1 -1.83415,-4.8571 1.8478024,4.8416553 0 0 1 1.84604,-4.82608 1.8478024,4.8416553 0 0 1 1.84953,4.81693 1.8478024,4.8416553 0 0 1 -1.83065,4.86618"
       sodipodi:arc-type="arc"
       transform="scale(-1,1)" />
    <path
       style="fill:#000000;stroke-width:0.334142"
       d="m 303.24198,66.681978 c 0.42251,0.0059 0.91077,0.05392 1.48003,0.133528 2.35377,0.329152 6.58364,2.350855 9.28209,4.436664 1.14818,0.887516 1.5167,0.998057 2.11666,0.633807 0.39955,-0.242564 1.69609,-1.040712 2.88096,-1.773675 1.18489,-0.732967 2.43504,-1.270051 2.77813,-1.192619 0.55329,0.124882 0.62373,0.363181 0.62373,2.104182 0,2.262444 0.23397,2.898324 0.63098,1.71516 0.30501,-0.908962 2.40944,-2.385184 4.2638,-2.991017 1.28646,-0.420302 6.47892,-0.348844 9.26041,0.127753 4.27732,0.732896 9.88997,2.526248 11.90622,3.804506 0.50933,0.322886 1.87855,1.193564 3.0427,1.934393 3.62051,2.303952 9.17307,7.232989 10.45929,9.284605 0.27091,0.432062 1.12429,1.474429 1.89603,2.316825 0.7717,0.842394 1.87925,2.26434 2.46133,3.159157 0.58208,0.894796 2.54661,3.9126 4.36562,6.706506 2.24655,3.450607 3.50292,5.084117 3.91757,5.092727 1.49016,0.0313 7.71577,3.25039 9.047,4.67816 0.36379,0.39018 0.94172,0.84815 1.28414,1.01788 0.34243,0.16974 1.03619,0.75614 1.54152,1.30306 0.50533,0.54693 1.16152,1.11795 1.45883,1.26845 0.29729,0.15049 1.0328,0.82836 1.63399,1.50663 0.60121,0.67828 1.7478,1.96515 2.54816,2.85998 4.33052,4.84162 7.47455,9.596 9.22165,13.94463 0.23738,0.59082 0.611,1.39388 0.83045,1.78439 0.52075,0.92671 1.08061,2.7528 2.40243,7.83731 0.36552,1.40602 0.82383,2.41003 1.25211,2.74293 1.54292,1.19935 2.96209,6.0365 2.96209,10.09563 0,1.54656 -2.43726,8.70717 -3.81269,11.20168 l -1.03455,1.87588 0.73795,0.93876 c 0.69863,0.88869 0.73191,1.08495 0.62682,3.71714 -0.0881,2.20711 -0.27217,3.15482 -0.894,4.60563 -1.60725,3.74986 -5.94377,9.80358 -7.522,10.50031 -0.83905,0.37038 -0.98203,0.29499 -1.65365,-0.87778 -0.40436,-0.70608 -0.73536,-1.55689 -0.73536,-1.89072 0,-0.33381 -0.13962,-0.60743 -0.31006,-0.60743 -0.17045,0 -0.50999,-0.28924 -0.75499,-0.64288 -0.40502,-0.5846 -0.54515,-0.48879 -1.54255,1.05497 -0.60333,0.93388 -1.19753,1.69786 -1.32032,1.69786 -0.12279,0 -0.43888,0.37979 -0.70227,0.84397 -0.2634,0.4642 -0.67345,0.84399 -0.91107,0.84399 -0.2376,0 -0.84389,0.56181 -1.34771,1.24867 -0.50382,0.68685 -1.0365,1.25639 -1.1834,1.26596 -0.1469,0.009 -0.41209,0.38891 -0.58962,0.84233 -0.44487,1.13616 -0.0314,1.47429 1.75236,1.43328 0.91845,-0.0211 1.4995,-0.24093 1.63555,-0.61814 0.11607,-0.32176 0.40573,-0.96496 0.64389,-1.42917 0.4223,-0.8231 0.4292,-0.8158 0.28371,0.27776 -0.0821,0.61669 -0.2222,1.42375 -0.3111,1.79346 -0.23799,0.98912 0.35957,0.8199 1.03197,-0.29176 0.91824,-1.51815 2.01785,-2.47805 2.64893,-2.3127 0.50091,0.13126 0.44998,0.24317 -0.37465,0.82336 -2.36559,1.66433 -2.92879,4.50907 -1.65986,8.37963 0.75546,2.30431 3.24834,6.10162 3.61839,5.51143 0.12869,-0.20527 0.10744,-1.06614 -0.0486,-1.96737 -0.35116,-2.02836 0.31501,-4.69609 1.53067,-6.12956 0.54672,-0.6447 0.82112,-1.32906 0.82112,-2.04896 0,-0.72975 0.30096,-1.4645 0.92604,-2.25996 0.50933,-0.64815 0.92604,-1.53831 0.92604,-1.97891 0,-0.44059 0.11907,-0.919 0.26459,-1.06239 0.14552,-0.14338 0.26458,-0.62075 0.26458,-1.06074 0,-0.58013 0.25448,-0.87547 0.92604,-1.07641 0.50933,-0.15247 0.92604,-0.52416 0.92604,-0.82584 0,-0.71377 1.50739,-2.73387 2.04017,-2.73387 0.28228,0 0.19346,0.27513 -0.28161,0.87119 -0.38164,0.47879 -0.79256,1.47572 -0.91313,2.21544 -0.12055,0.73969 -0.38976,1.36179 -0.59841,1.383 -1.54681,0.15743 -2.42562,1.58312 -2.01848,3.27537 0.0858,0.35678 -0.21534,0.84271 -0.79788,1.28574 -0.84301,0.64117 -0.92218,0.84563 -0.80047,2.06464 0.12282,1.23028 0.0449,1.42099 -0.85214,2.0951 -0.54273,0.40785 -1.12455,1.22375 -1.29296,1.81324 -0.61116,2.13976 -0.20135,6.59022 0.65527,7.11449 0.21729,0.13301 0.32032,0.43491 0.22891,0.6709 -0.23777,0.61364 0.77763,2.52104 2.06914,3.88776 1.40497,1.48669 1.76784,1.48126 1.76784,-0.0281 0,-0.66166 0.12486,-1.75358 0.2775,-2.42644 0.37174,-1.63853 2.23861,-3.66623 3.422,-3.71632 0.82561,-0.0349 0.94012,0.0912 1.01442,1.1209 0.0671,0.92955 -0.0236,1.16049 -0.45474,1.16049 -0.36203,0 -0.4903,-0.20039 -0.39122,-0.61239 0.45096,-1.87424 -1.15929,-1.10697 -2.51816,1.20004 -0.79139,1.34354 -1.06032,4.2393 -0.42944,4.6254 0.63854,0.39082 0.93011,-0.0233 0.93998,-1.33438 0.008,-1.08362 0.65643,-2.96008 0.89193,-2.58138 0.0616,0.099 0.014,1.0335 -0.10591,2.07698 -0.26378,2.29577 0.12006,4.01422 1.2981,5.80977 0.44979,0.68559 0.81803,1.36839 0.81803,1.51736 v 0 c 0,0.14881 -0.0893,0.26434 -0.19843,0.25796 -0.29393,-0.0184 -1.91823,-2.44839 -1.91823,-2.86985 0,-0.1994 -0.24325,-0.71405 -0.54054,-1.14316 -0.52816,-0.76229 -0.54416,-0.7587 -0.69246,0.14593 -0.17579,1.07211 -0.49565,1.20299 -0.7147,0.29259 -0.0838,-0.34814 -0.40227,-0.633 -0.70744,-0.633 -1.07418,0 -3.444,-2.75662 -4.51704,-5.25426 -0.37359,-0.86963 -0.91236,-1.52283 -1.37821,-1.67147 -0.96591,-0.30813 -3.46898,-4.3724 -3.9212,-6.36694 -0.18413,-0.81218 -0.50046,-1.47696 -0.70278,-1.47696 -0.20233,0 -1.48833,1.67725 -2.85771,3.72702 -1.36938,2.04979 -2.81686,3.99267 -3.21686,4.31717 -0.39999,0.32445 -1.08428,0.99986 -1.52081,1.50085 -0.73843,0.84735 -1.35123,1.39913 -4.98163,4.49106 -0.75265,0.64105 -2.02323,1.46014 -2.82357,1.81984 -0.80037,0.35971 -1.69336,0.81623 -1.98438,1.01458 -1.05031,0.71586 -3.39165,1.38257 -6.87915,1.95831 -1.44233,0.23809 -4.23521,-0.75664 -6.74687,-2.40338 -3.56356,-2.33641 -4.2061,-2.79449 -5.95311,-4.24216 -3.64389,-3.01946 -3.61513,-2.98404 -3.45458,-4.31548 0.12306,-1.02046 0.0745,-1.15999 -0.31678,-0.91323 -0.25408,0.16029 -0.84895,0.39508 -1.32186,0.52173 -1.17129,0.31367 -1.12956,-0.60513 0.0434,-0.95607 1.13406,-0.33933 2.12725,-1.94356 1.93373,-3.12372 -0.17867,-1.0897 0.0833,-1.09418 0.94361,-0.0143 1.71841,2.15586 6.22204,5.05811 7.84911,5.05811 0.5302,0 1.09876,0.21448 1.26299,0.47638 0.6032,0.96211 6.42182,0.97407 6.42182,0.0128 0,-0.16691 -1.10132,-0.25808 -2.44738,-0.20194 -2.29143,0.0957 -3.35272,-0.17482 -4.96094,-1.26597 l -0.66146,-0.44919 0.60976,-0.16237 c 0.33544,-0.0895 0.76629,0.0444 0.95758,0.29754 0.51573,0.68259 6.82547,1.10247 8.0274,0.53407 0.5435,-0.25702 1.70296,-0.79944 2.57609,-1.20579 1.61183,-0.75017 5.74044,-3.94684 6.50294,-5.03503 0.22973,-0.32789 0.50548,-0.59672 0.61287,-0.59672 0.24683,0 1.9435,-1.99179 2.7771,-3.26054 0.47958,-0.72994 0.7181,-0.8502 0.98493,-0.49699 0.26628,0.35246 0.54131,0.22394 1.12914,-0.52584 0.42746,-0.54526 0.87712,-1.31932 0.99944,-1.7201 0.19162,-0.628 2.52123,-3.6255 5.00897,-6.44524 0.40952,-0.46419 1.31959,-1.65104 2.0226,-2.63745 0.70302,-0.98641 1.42338,-1.79685 1.60044,-1.80005 0.32504,-0.007 0.73654,-0.5381 3.94083,-5.08283 0.97194,-1.37855 1.89221,-2.50639 2.0443,-2.50639 0.41902,0 4.12559,-5.78126 5.54642,-8.65079 0.68953,-1.39256 1.65097,-3.6713 2.13633,-5.06387 0.48535,-1.39257 1.1126,-3.19657 1.39422,-4.00891 0.71649,-2.06683 0.52729,-5.79572 -0.44495,-8.76125 -0.78618,-2.39835 -1.16176,-2.73642 -1.40301,-1.26514 -0.45847,2.79617 -4.18482,11.29235 -4.95264,11.29235 -0.15897,0 -0.81688,0.85807 -1.46193,1.90637 l -1.17256,1.90555 0.61135,3.73775 c 0.66545,4.06985 0.66686,5.66338 0.006,5.86417 -0.31655,0.0962 -0.47183,-0.31884 -0.6005,-1.60225 -0.54258,-5.41176 -1.90996,-10.54561 -2.80859,-10.54561 -0.15576,0 -0.26459,1.48416 -0.26459,3.6075 v 3.6067 l -1.25677,2.00364 c -0.69122,1.10182 -2.03067,2.83653 -2.97656,3.85477 -0.94587,1.01828 -2.70975,3.05046 -3.91966,4.51661 -2.7374,3.31719 -3.22407,3.75849 -3.22407,2.92015 0,-0.34125 0.49336,-1.15498 1.09605,-1.80829 0.6027,-0.65332 1.39457,-1.63603 1.76009,-2.18331 0.36552,-0.5473 0.97716,-1.30688 1.35909,-1.68795 1.56128,-1.55772 4.41046,-5.01162 5.3578,-6.49553 0.9485,-1.48561 1.01028,-1.73857 1.01028,-4.11439 0,-1.45175 -0.11588,-2.53194 -0.2718,-2.53194 -0.16997,0 -0.21524,-0.78886 -0.12094,-2.10418 0.0882,-1.22949 0.0269,-2.4726 -0.14677,-2.99021 -0.16359,-0.48721 -0.23299,-0.98746 -0.15449,-1.11266 0.0785,-0.12504 0.34134,0.56352 0.58394,1.53053 0.40574,1.61739 0.47731,1.70619 0.89193,1.10773 0.61175,-0.88293 0.87464,-0.81834 0.6785,0.1673 -0.11628,0.58437 0.0111,0.96408 0.44545,1.32779 0.33441,0.28013 0.70877,0.78219 0.832,1.11597 0.28115,0.76161 1.46191,0.3699 2.02467,-0.67171 0.21829,-0.40401 0.85178,-1.26657 1.40767,-1.9171 1.83864,-2.15176 5.0285,-9.97677 4.55992,-11.18603 -0.35036,-0.90411 -0.87402,-0.43421 -1.01597,0.91237 -0.23016,2.18359 -2.03522,6.57876 -3.48606,8.48762 -2.05748,2.70692 -2.94053,3.59518 -3.26081,3.27949 -0.41954,-0.41356 -0.0393,-1.14793 0.75449,-1.45718 0.37335,-0.14546 0.92056,-0.60212 1.21647,-1.0146 0.29589,-0.4125 0.94322,-1.32193 1.43815,-2.02175 1.57112,-2.22152 2.61948,-5.24365 2.61948,-7.54967 0,-1.64655 -0.66257,-5.80132 -1.22836,-7.70297 -0.23066,-0.77507 -0.36692,-1.9789 -0.30281,-2.67535 0.11038,-1.1995 -0.0299,-1.44607 -0.74777,-1.3113 -0.17732,0.0332 -0.24992,-0.41009 -0.1824,-1.11019 0.095,-0.98657 0.0673,-1.05272 -0.1814,-0.42776 -0.50565,1.27092 -0.87104,0.86761 -0.68056,-0.75167 0.15047,-1.27923 0.0624,-1.68279 -0.62169,-2.84844 -0.43834,-0.74693 -1.18848,-2.04613 -1.66706,-2.88716 -1.06693,-1.87485 -3.89384,-5.63213 -5.50044,-7.31066 -0.65485,-0.68417 -1.30969,-1.44881 -1.45521,-1.6995 -0.55032,-0.94809 -3.56668,-4.00109 -4.20594,-4.25699 -0.36684,-0.14686 -0.79711,-0.51719 -0.95602,-0.82255 -0.30686,-0.58973 -3.21991,-2.90572 -5.42135,-4.31056 -3.35629,-2.14181 -4.83118,-2.73108 -5.47097,-2.18496 -0.39558,0.33765 -0.83854,-0.1603 -2.55489,-2.8748 -2.52817,-3.998476 -4.81504,-7.293342 -5.06274,-7.293342 -0.10073,0 -0.33163,-0.442335 -0.51314,-0.98327 -0.1815,-0.540941 -0.69471,-1.326977 -1.13998,-1.746478 -0.44527,-0.419496 -1.01078,-1.068245 -1.25676,-1.442349 -0.89657,-1.363466 -1.82946,-2.522792 -2.43345,-3.023162 -0.33986,-0.281555 -1.14454,-1.191079 -1.788,-2.020935 -1.8967,-2.446154 -6.36013,-6.072721 -9.67794,-7.863688 -1.16417,-0.628419 -2.22025,-1.299885 -2.34715,-1.492625 -0.12686,-0.192748 -0.38634,-0.255798 -0.57671,-0.139285 -0.19037,0.11651 -0.7416,-0.07228 -1.22473,-0.419517 -0.48313,-0.347239 -1.23567,-0.725274 -1.67223,-0.840684 -0.43657,-0.115408 -1.75313,-0.50097 -2.92592,-0.85634 -1.17277,-0.355366 -2.81041,-0.720734 -3.63905,-0.811837 -0.82865,-0.0911 -1.5721,-0.269766 -1.65208,-0.397265 -0.15547,-0.247967 -7.0386,0.003 -8.58398,0.313196 -2.94951,0.591769 -4.13947,1.465863 -3.66073,2.688536 0.21561,0.550576 0.1542,1.176171 -0.25374,2.595404 -0.55367,1.926259 -0.54036,2.514634 0.0568,2.514634 0.2253,0 0.30086,0.367203 0.21757,1.062393 -0.14835,1.237715 -1.49363,2.922552 -2.05777,2.577272 -0.21312,-0.130432 -0.38756,-0.08371 -0.38756,0.103841 0,0.187553 -0.26789,0.568741 -0.59531,0.847281 -1.54811,1.316958 -1.91792,1.750818 -1.92392,2.252535 -0.003,0.297811 -0.21163,0.486065 -0.46301,0.417868 -0.25141,-0.0682 -0.45733,0.07423 -0.45733,0.316492 0,0.242268 -0.18553,0.440123 -0.41238,0.440123 -0.22696,0 -0.33899,-0.189896 -0.24908,-0.421991 0.0899,-0.232092 0.0414,-0.421989 -0.10748,-0.421989 -0.14898,0 -0.40015,0.385652 -0.55811,0.856344 -0.15793,0.470693 -0.40026,0.743685 -0.53848,0.607435 -0.13819,-0.136239 -0.25114,0.141214 -0.25114,0.616502 0,0.615282 -0.17145,0.8642 -0.59531,0.862936 -1.07212,-0.0026 -1.52136,0.146222 -1.52136,0.503585 0,0.80344 -0.0572,1.018233 -0.45683,1.722576 -0.53221,0.937944 -2.45357,1.037445 -2.45357,0.126924 0,-0.336608 -0.16336,-0.763874 -0.36278,-0.949477 -0.19941,-0.185604 -0.34821,-0.81266 -0.33072,-1.392897 0.0238,-0.792025 -0.11634,-1.088089 -0.56328,-1.189319 -0.39229,-0.08885 -0.59531,-0.424932 -0.59531,-0.984917 0,-1.400533 -0.54036,-0.727371 -2.95693,3.682521 -1.26255,2.303953 -2.42918,4.378477 -2.59259,4.610572 -1.0546,1.497858 -3.8186,6.757987 -4.24726,8.082927 -0.21381,0.66067 -0.45382,1.2958 -0.53333,1.41186 -0.41764,0.60973 -1.35908,3.67726 -1.5291,4.98228 -0.10726,0.82332 -0.35732,1.58315 -0.55602,1.68878 -0.28395,0.15098 -0.3311,-0.23745 -0.21963,-1.81489 0.078,-1.10368 0.25815,-2.12531 0.39997,-2.27067 0.36237,-0.37143 1.387,-3.68139 1.387,-4.48034 0,-0.36468 0.16097,-0.76155 0.35761,-0.8819 0.19663,-0.12035 0.9578,-1.58986 1.69134,-3.265478 0.73353,-1.675624 1.89068,-3.897875 2.57143,-4.937776 0.68074,-1.039898 1.41203,-2.416172 1.62523,-3.058605 0.3447,-1.039121 0.34194,-1.195503 -0.0265,-1.420921 -0.26403,-0.161416 -0.35698,-0.541746 -0.25633,-1.047557 0.10623,-0.533871 0.0294,-0.794526 -0.23461,-0.794526 -0.21595,0 -0.44275,0.237369 -0.50384,0.527487 -0.0874,0.414715 -0.33221,0.399811 -1.14618,-0.0717 -0.56946,-0.329858 -1.22957,-0.625706 -1.46658,-0.656887 -0.81532,-0.107228 -1.80929,-1.446688 -1.65208,-2.226161 0.12277,-0.608798 0.10039,-0.629229 -0.12663,-0.117037 -0.22955,0.517817 -0.42264,0.535282 -1.16787,0.105501 -0.49122,-0.283302 -1.09945,-0.515123 -1.35133,-0.515123 -0.25188,0 -0.89845,-0.36574 -1.43661,-0.813482 -0.53813,-0.447767 -1.93074,-1.148531 -3.0949,-1.556916 -1.16417,-0.408385 -2.22956,-0.896371 -2.36781,-1.084645 -0.13824,-0.188279 -0.56113,-0.342867 -0.93948,-0.342867 -0.37835,0 -0.80124,-0.179718 -0.93948,-0.399739 -0.13825,-0.220016 -0.90599,-0.583739 -1.70634,-0.808536 -0.80037,-0.224803 -1.7162,-0.538987 -2.03555,-0.698101 -0.44371,-0.221092 -0.79415,0.04399 -1.48569,1.125036 -1.62763,2.544401 -2.17286,5.228456 -1.403,6.907613 0.20206,0.440803 0.31816,1.006206 0.25786,1.256903 -0.0603,0.250694 0.25059,1.00691 0.69091,1.679719 0.44029,0.672803 0.80047,1.434212 0.80047,1.692082 0,0.257866 0.41309,1.124168 0.91778,1.925329 0.50462,0.801157 0.92104,1.788677 0.92604,2.194842 0.005,0.406166 0.17675,0.738483 0.38291,0.738483 0.20614,0 0.41452,0.17021 0.46302,0.378306 0.40428,1.734451 5.62903,10.171446 6.29885,10.171446 0.14935,0 0.2718,0.38388 0.2718,0.85304 0,0.48994 0.26932,1.04901 0.63252,1.31295 0.34781,0.25276 0.7844,0.91331 0.97048,1.4679 0.18611,0.5546 0.4972,1.008 0.6909,1.008 0.19368,0 0.35193,0.16834 0.35193,0.37336 0,0.20502 0.23812,0.47205 0.52916,0.59343 0.40728,0.16986 0.52917,0.5756 0.52917,1.7613 0,2.19884 -0.53491,5.28972 -0.91519,5.28972 -0.17762,0 -0.76317,-0.75958 -1.30173,-1.68796 -0.53856,-0.92837 -1.09293,-1.68796 -1.23144,-1.68796 -0.13851,0 -1.39401,-1.80401 -2.79,-4.0089 -1.396,-2.20491 -2.65399,-4.00891 -2.7957,-4.00891 -0.14168,0 -0.19267,-0.16731 -0.11318,-0.37254 0.0795,-0.20522 -0.41907,-1.15584 -1.10844,-2.11242 -0.6894,-0.95658 -1.67039,-2.40418 -2.17972,-3.21686 -0.50932,-0.81266 -1.07487,-1.47624 -1.25677,-1.47449 -0.1819,0.002 -0.33073,-0.15383 -0.33073,-0.34534 0,-0.19151 -0.6523,-1.09351 -1.44952,-2.004447 -0.79723,-0.910937 -1.45221,-1.890191 -1.4552,-2.175887 -0.01,-0.894427 -1.30979,-1.096098 -2.60553,-0.404679 -0.68019,0.362953 -1.5938,0.851158 -2.03036,1.085468 -0.43656,0.234309 -1.47835,0.656227 -2.3151,0.93794 -0.93562,0.314994 -1.52135,0.730225 -1.52135,1.078054 0,0.31107 0.0893,0.545171 0.19844,0.520071 0.53665,-0.123433 1.38964,0.65043 1.53789,1.39536 0.1129,0.56741 0.32898,0.76955 0.67024,0.62722 0.27686,-0.11547 0.57014,-0.0381 0.65163,0.17226 0.0815,0.2103 0.42432,0.38243 0.76171,0.38243 0.3374,0 0.76142,0.28484 0.94258,0.63298 0.18116,0.34814 0.56425,0.63299 0.85111,0.63299 0.3025,0 0.5806,0.36176 0.66249,0.86128 0.0777,0.47368 0.27485,0.78404 0.43823,0.68986 0.44453,-0.25625 1.22317,0.50348 1.22317,1.19344 0,0.34487 0.15899,0.50745 0.36999,0.37831 0.20357,-0.12458 0.44858,-0.0237 0.54467,0.22418 0.0961,0.24792 0.40958,0.45084 0.69659,0.45084 0.28702,0 0.59058,0.28484 0.6744,0.63298 0.0838,0.34814 0.34792,0.63935 0.58703,0.647 0.23907,0.008 0.91085,0.57427 1.49293,1.25855 0.58209,0.68428 1.47506,1.57828 1.98438,1.98714 0.50932,0.40887 1.49053,1.36229 2.18021,2.11821 0.68977,0.7559 1.36811,1.37393 1.50794,1.37393 0.13975,0 0.34975,0.23737 0.46612,0.52748 0.11636,0.29013 0.68759,0.92193 1.26968,1.40362 1.61943,1.34012 2.2923,2.01028 2.81531,2.80557 0.26326,0.40026 0.7792,0.84858 1.14671,0.99563 0.3675,0.14705 0.66818,0.43676 0.66818,0.6437 0,0.20692 0.23812,0.37584 0.52916,0.37584 0.59629,0 0.69607,-0.82354 0.19844,-1.63851 -0.26665,-0.43677 -0.2282,-0.51411 0.19844,-0.40057 0.54414,0.14466 1.71979,1.80842 1.71979,2.43387 0,0.19309 0.23678,0.44977 0.52607,0.57034 0.28927,0.12074 0.63307,0.66525 0.7643,1.20993 0.13124,0.54466 0.6689,1.69287 1.19422,2.55172 0.52535,0.85885 0.95498,1.76083 0.95498,2.00445 0,0.24359 0.14118,0.4426 0.31367,0.4426 0.43629,0 1.53842,1.71608 1.53842,2.39512 0,0.30768 0.11647,0.55881 0.25889,0.55881 0.39002,0 2.85747,4.10402 3.05045,5.07377 0.0926,0.46546 0.2789,0.73813 0.41394,0.60495 0.13505,-0.13301 0.24546,-0.0664 0.24546,0.14913 0,0.21547 0.47625,1.34616 1.05833,2.51216 0.58208,1.16599 1.05833,2.23533 1.05833,2.37617 0,0.14083 0.22445,0.61352 0.49869,1.05084 0.72358,1.15408 2.41173,5.87518 2.41173,6.74443 0,0.40817 0.26046,1.58435 0.57878,2.61436 0.31831,1.02998 0.54717,2.31062 0.50849,2.84514 -0.0387,0.53449 0.046,1.19912 0.18809,1.47695 0.31631,0.61849 1.10588,4.79953 1.10588,5.85594 0,0.42208 -0.0945,0.76734 -0.20982,0.76734 -0.26093,0 -0.94837,-3.7434 -0.87177,-4.74739 0.031,-0.40616 -0.0597,-0.73848 -0.20153,-0.73848 -0.1419,0 -0.33923,-0.80704 -0.43873,-1.79346 -0.0995,-0.98639 -0.39261,-2.55304 -0.65114,-3.48142 -1.2873,-4.62392 -1.61665,-5.58383 -2.3895,-6.96531 -0.21828,-0.39018 -0.635,-1.34704 -0.92604,-2.12643 -0.29104,-0.77941 -0.65691,-1.75152 -0.81338,-2.16105 -0.26094,-0.68296 -3.66844,-6.80556 -5.07359,-9.11648 -0.32742,-0.53848 -0.59531,-1.17166 -0.59531,-1.4069 0,-0.23517 -0.11907,-0.3107 -0.26459,-0.16732 -0.14552,0.14339 -0.26458,-0.0346 -0.26458,-0.39643 0,-0.36184 -0.17859,-0.65853 -0.39688,-0.65853 -0.21828,0 -0.39687,-0.2145 -0.39687,-0.47721 0,-0.26272 -0.38695,-1.08302 -0.8599,-1.82231 -1.03617,-1.61977 -1.7836,-3.08258 -1.79161,-3.50698 -0.003,-0.1714 -0.22892,-0.77423 -0.50126,-1.33931 -0.48723,-1.01102 -0.50649,-1.01583 -1.21904,-0.27117 -1.36628,1.42779 -2.22562,2.89199 -2.51304,4.2809 -0.43277,2.09155 -0.34795,8.63617 0.14574,11.23382 0.96128,5.05808 1.86573,9.25441 2.34714,10.89015 0.26228,0.89128 1.85738,2.64027 3.33364,3.65533 0.21828,0.15008 0.57546,0.49763 0.79375,0.77228 0.21828,0.27462 0.81359,0.75673 1.32291,1.07145 0.50933,0.31472 1.02103,0.82046 1.13739,1.12421 0.11637,0.30373 0.39302,0.55221 0.61445,0.55221 0.47799,0 1.15858,1.00102 1.15858,1.70362 0,0.28586 0.18306,0.38461 0.43048,0.23326 0.23675,-0.14482 0.59526,-0.0452 0.79684,0.2217 0.57914,0.76664 1.76405,1.75184 7.15508,5.94495 0.31761,0.24699 0.76409,0.33408 0.99219,0.19451 0.30758,-0.18823 0.41497,0.0159 0.41497,0.78794 0,0.65682 0.15074,1.04179 0.40773,1.04179 0.38578,0 1.66608,1.27016 2.45049,2.43056 0.19759,0.29225 0.46992,0.42262 0.60513,0.28928 0.13517,-0.13333 0.5585,0.14961 0.94051,0.62889 0.73971,0.928 1.68155,1.16572 1.68155,0.42445 0,-0.2458 0.11403,-0.33414 0.25321,-0.19699 0.13917,0.13716 0.2015,0.48053 0.13901,0.76323 -0.0625,0.28268 0.19653,0.87327 0.57515,1.31293 0.63055,0.73195 0.70929,0.74092 0.93226,0.10544 0.34083,-0.9714 1.03338,-0.86407 1.80713,0.28023 0.36232,0.53582 0.77793,1.0072 0.92345,1.04755 0.60416,0.16727 1.71978,1.05906 1.71978,1.37477 0,0.18707 0.63254,0.81784 1.4056,1.40114 0.85929,0.64835 1.52545,1.48013 1.7141,2.14045 0.31851,1.11489 0.7012,1.38089 0.97412,0.67666 0.086,-0.2219 0.33239,-0.29628 0.54724,-0.16483 0.37589,0.23004 0.19833,-0.52734 -0.99269,-4.23227 -0.47139,-1.46631 -0.56693,-6.67323 -0.15762,-8.60217 0.52713,-2.484 2.62418,-6.21826 4.26846,-7.60077 1.22682,-1.03156 1.64436,-1.15029 4.02351,-1.15057 2.03584,-2.5e-4 2.92987,0.18902 3.83646,0.81265 0.65013,0.44724 1.68137,1.15934 2.29185,1.58245 0.61049,0.42313 1.18479,0.769 1.27589,0.769 0.0911,0 0.34396,0.28483 0.56224,0.63298 0.21828,0.34813 0.6863,0.63298 1.03973,0.63298 0.3534,0 0.64233,0.14499 0.64233,0.32144 0,0.17651 0.80367,0.98356 1.78594,1.79345 0.98226,0.80989 1.8258,1.61444 1.87429,1.78852 0.0485,0.17406 0.24234,0.31649 0.43098,0.31649 0.18865,0 1.03307,0.85453 1.87638,1.89895 0.8433,1.04444 1.6615,1.90017 1.81798,1.90144 0.15644,10e-4 0.71421,0.61826 1.2397,1.37146 0.52552,0.75317 1.68517,2.41343 2.57711,3.68994 0.89191,1.27653 1.62319,2.44107 1.62417,2.58716 0.003,0.14609 0.44908,1.01601 0.99478,1.93357 0.54571,0.91756 1.17078,2.10271 1.38907,2.63414 0.21828,0.53144 0.5457,1.21422 0.72759,1.51735 0.1819,0.30314 0.33073,0.66725 0.33073,0.80937 0,0.29986 1.10347,2.86235 1.37252,3.18718 0.10004,0.12072 0.30922,0.75271 0.46459,1.40444 0.25355,1.06373 0.37028,1.15533 1.14101,0.89506 0.96941,-0.32735 5.28549,-3.08785 5.48854,-3.51025 0.0728,-0.15135 0.78713,-0.82338 1.5875,-1.49345 0.80036,-0.67009 1.83366,-1.57962 2.2965,-2.02095 l 0.84179,-0.80193 -0.0951,-3.88693 c -0.12652,-5.17085 0.0867,-6.72136 0.99476,-7.2307 0.51146,-0.28686 0.91498,-0.22961 1.44229,0.20606 1.05021,0.86767 2.7218,3.76503 2.7218,4.71771 0,1.22718 -0.60275,0.66474 -1.11363,-1.03931 -0.55049,-1.83619 -1.65005,-3.28445 -2.49391,-3.28445 -0.7474,0 -0.84924,1.09666 -0.13539,1.45803 0.84196,0.4262 2.56482,3.30938 3.16312,5.29383 0.7983,2.64777 1.62895,7.14294 1.45417,7.86944 -0.28495,1.18439 -0.70595,0.26905 -1.39837,-3.03965 -0.38589,-1.84402 -0.86228,-3.82757 -1.05833,-4.40781 -0.76663,-2.26903 -2.01248,-4.60946 -2.46187,-4.62541 -0.50295,-0.0175 -0.49951,-0.35033 -0.061,6.15512 l 0.14573,2.16352 -1.79058,1.68879 c -7.06767,6.66691 -13.73993,10.04347 -17.06095,8.63431 -1.62497,-0.6895 -1.89762,-0.0549 -1.84073,4.28337 0.0382,2.90823 -0.0282,3.64378 -0.32917,3.64378 -0.45539,0 -0.73241,-1.81122 -0.74982,-4.90397 -0.0106,-1.85357 0.10816,-2.49927 0.62165,-3.37593 0.56478,-0.96423 0.76648,-1.05214 1.82574,-0.79535 1.75426,0.42526 4.56308,0.3139 5.43686,-0.21594 1.45761,-0.8839 1.49143,-1.15191 0.43513,-3.42867 -0.53755,-1.15858 -1.15581,-2.5397 -1.37408,-3.06933 -0.44537,-1.08063 -3.45879,-6.53416 -4.54236,-8.22056 -1.27919,-1.99081 -4.04844,-5.52955 -4.32736,-5.52955 -0.10689,0 -0.65529,-0.66463 -1.21907,-1.47697 -0.56375,-0.81233 -1.20851,-1.47695 -1.43245,-1.47695 -0.22395,0 -0.66982,-0.39154 -0.99116,-0.87037 -0.32133,-0.47881 -2.60852,-2.48624 -5.08237,-4.46139 -4.25452,-3.39682 -4.62438,-3.61112 -6.83317,-3.95285 -1.92132,-0.29726 -2.58738,-0.23378 -3.75996,0.35852 -1.72815,0.87292 -4.18248,4.10773 -4.794,6.31914 -0.67852,2.45338 -0.90006,6.2437 -0.46252,7.91396 0.20429,0.77975 0.37156,1.82128 0.37156,2.31436 0,0.49307 0.24585,1.39455 0.54623,2.00362 0.48783,0.9892 0.50196,1.15954 0.13228,1.5907 -0.65454,0.76334 -0.51775,1.81056 0.2196,1.68136 0.41439,-0.0726 0.8794,0.30504 1.34515,1.09208 1.08169,1.8278 1.28664,1.56006 1.13379,-1.47779 -0.17976,-3.57177 0.0423,-4.14906 1.46502,-3.8078 0.61095,0.14657 1.22394,0.43223 1.36218,0.63464 0.13825,0.20241 0.47961,0.36758 0.75811,0.36758 0.55797,0 2.24096,1.3633 3.51348,2.84514 0.45018,0.52437 0.89257,0.95277 0.98287,0.95277 0.50594,0 5.40387,7.93196 5.5769,9.03157 0.0881,0.55988 0.23487,1.32855 0.32608,1.70775 0.0913,0.37918 0.0536,0.63369 -0.0837,0.56622 -0.13726,-0.0675 -0.53893,0.38437 -0.89244,1.00388 -0.69773,1.22212 -1.83348,1.97363 -1.83348,1.21239 0,-0.25348 0.29766,-0.64151 0.66146,-0.86211 0.3638,-0.22061 0.66146,-0.48478 0.66146,-0.58765 0,-0.10283 0.0724,-0.48756 0.1607,-0.85471 0.10248,-0.42583 0.0169,-0.66758 -0.23616,-0.66758 -0.21826,0 -0.45699,0.24885 -0.5302,0.55302 -0.0732,0.30417 -0.62696,0.78886 -1.23042,1.07723 -1.03721,0.49565 -1.14339,0.46242 -1.9456,-0.60826 -2.05203,-2.73865 -3.55545,-8.15156 -2.8489,-10.25715 0.15438,-0.46009 0.28059,-1.01864 0.28059,-1.24042 0,-0.40789 -2.14919,-2.18412 -2.64273,-2.18412 -0.4258,0 -0.30983,4.03383 0.17105,5.9507 0.40832,1.6276 0.40832,1.77517 0,2.13963 -0.61889,0.55238 -0.55377,2.33148 0.10593,2.89459 0.5161,0.4405 0.53478,0.38316 0.36018,-1.10113 -0.27162,-2.30945 0.23728,-1.50162 0.91106,1.44565 0.42649,1.86557 0.96229,3.10276 2.12752,4.91305 0.85653,1.33069 1.89709,2.77669 2.31251,3.21354 0.45945,0.48308 0.59462,0.79541 0.3452,0.797 -0.22556,0.001 -0.52321,-0.17565 -0.66146,-0.39396 -0.26828,-0.42368 -1.46047,-1.44458 -7.52976,-6.44606 -2.11162,-1.74008 -4.13568,-3.30846 -4.49791,-3.48471 -0.36227,-0.17626 -1.07558,-0.81958 -1.58491,-1.43 -0.78049,-0.93537 -4.37896,-3.92464 -14.41977,-11.9789 -0.87312,-0.70038 -1.67748,-1.51831 -1.7875,-1.81737 -0.10998,-0.29905 -0.54843,-0.66599 -0.97409,-0.81513 -0.42563,-0.14913 -0.91542,-0.54373 -1.0888,-0.87694 -0.17341,-0.33323 -0.51504,-0.60579 -0.75914,-0.60579 -0.24413,0 -0.55732,-0.16803 -0.69557,-0.37419 -0.13824,-0.20613 -2.21567,-1.96072 -4.61675,-3.89845 -2.4011,-1.93773 -4.52319,-3.76278 -4.71549,-4.05589 -0.19227,-0.29311 -0.56279,-0.53325 -0.8237,-0.53325 -0.26093,0 -0.86796,-0.54785 -1.34875,-1.21736 -0.48078,-0.6695 -1.95525,-2.09862 -3.27682,-3.17646 -2.04269,-1.66598 -3.38522,-3.06619 -5.11647,-5.33586 -0.18264,-0.23942 -1.07559,-0.97018 -1.98438,-1.6245 -1.78265,-1.28347 -2.38518,-2.12803 -2.81997,-3.95205 -0.27826,-1.16719 -0.27924,-1.16819 -1.26296,-0.51263 -1.59983,1.06612 -3.70377,-0.075 -5.51904,-2.9935 -0.90821,-1.4601 -1.15853,-1.65923 -1.64743,-1.3113 -0.41645,0.29639 -0.69821,0.24724 -1.01441,-0.17721 -0.48972,-0.65736 -2.55315,-2.53962 -5.11182,-4.66249 -2.23636,-1.85542 -2.98064,-2.99338 -3.17037,-4.84794 -0.12155,-1.18826 -0.35946,-1.70108 -1.07278,-2.31106 -2.03667,-1.74168 -3.69019,-7.05505 -3.329,-10.69728 0.0944,-0.95245 0.53043,-2.42099 0.99168,-3.33965 0.73567,-1.46536 0.78552,-1.73445 0.46871,-2.53195 -0.88712,-2.23277 -1.08807,-3.39694 -1.11779,-6.47819 -0.0617,-6.40634 0.47086,-8.42411 2.71355,-10.288487 0.74701,-0.621013 1.17743,-0.771192 1.3632,-0.474739 0.18589,0.296457 0.72168,0.181084 1.69603,-0.365119 0.78335,-0.439119 1.60957,-0.798649 1.83608,-0.798649 0.62084,0 3.52056,-1.608546 5.09991,-2.829477 2.07155,-1.601293 2.43914,-2.556715 2.43914,-6.34386 0,-3.524892 0.69847,-6.398867 2.13475,-8.781022 0.42649,-0.707331 0.77566,-1.503661 0.77566,-1.769553 0,-0.769913 1.10688,-1.79758 1.93632,-1.79758 0.41812,0 1.07617,-0.277142 1.46243,-0.616502 1.88817,-1.65894 4.85044,-2.503913 8.98238,-2.560788 2.22586,-0.03064 4.11294,0.114372 4.19354,0.322261 0.21807,0.562665 1.14439,-0.938354 1.56166,-2.531113 0.62222,-2.375137 1.22013,-3.136914 3.05097,-3.111353 z m 3.15433,1.767085 c -0.64187,0.0162 -0.63796,0.03321 0.13229,0.571993 0.43656,0.305369 0.88037,0.477736 0.9865,0.383252 0.10617,-0.09448 0.42637,0.02773 0.71159,0.271162 0.32166,0.274543 0.57767,0.290326 0.67384,0.04203 0.17444,-0.45015 -1.49156,-1.293977 -2.50422,-1.268443 z m 3.5755,1.244541 c -0.81064,0 -0.36307,0.668449 0.98856,1.476142 0.76398,0.456534 1.47835,0.896856 1.58749,0.978324 0.10914,0.08147 0.19844,-0.06173 0.19844,-0.318142 0,-0.25641 -0.32743,-0.672661 -0.7276,-0.924752 -0.40018,-0.252094 -0.93432,-0.627796 -1.187,-0.834913 -0.2527,-0.207121 -0.63966,-0.376659 -0.85989,-0.376659 z m -7.96541,0 c -0.38743,0 -0.6673,0.330607 -0.78653,0.929694 -0.10175,0.511388 -0.34816,1.18994 -0.54723,1.507462 -0.68506,1.092596 -0.41222,1.486689 0.8387,1.213221 0.66014,-0.144308 1.40428,-0.0914 1.65365,0.117865 0.24939,0.209261 1.69695,0.68268 3.21684,1.051675 1.51988,0.369006 2.84808,0.889607 2.95177,1.157177 0.39381,1.016284 3.14811,0.430809 3.14811,-0.66925 0,-0.639985 -1.11992,-1.509932 -1.94407,-1.509932 -0.32784,0 -0.70924,-0.162453 -0.84748,-0.360998 -0.51099,-0.733902 -6.55391,-3.436912 -7.68376,-3.436912 z m 19.46751,0.319787 c -0.0451,-0.002 -0.0957,0.0061 -0.15243,0.02059 -0.93866,0.240386 -6.11287,4.24384 -7.91373,6.122978 -2.31107,2.411407 -2.18161,2.095564 -2.29236,5.593839 -0.0859,2.712238 -0.19601,3.347488 -0.69091,3.986651 -0.3238,0.41818 -0.58859,0.871959 -0.58859,1.008823 0,0.386276 0.55486,0.24206 1.85208,-0.482159 1.07042,-0.597605 3.47537,-3.047279 6.51226,-6.633983 0.97646,-1.153268 2.04443,-2.245599 3.28403,-3.357786 0.33874,-0.303897 0.41949,-1.009692 0.38549,-3.375922 -0.0338,-2.353036 -0.0804,-2.868797 -0.39584,-2.883048 z m -8.08166,1.790163 c -0.0642,0 -0.11679,0.189895 -0.11679,0.42199 0,0.232095 0.126,0.421989 0.28009,0.421989 0.15407,0 0.20669,-0.189894 0.11679,-0.421989 -0.0899,-0.232095 -0.21588,-0.42199 -0.28009,-0.42199 z m -18.75075,1.88 c -2.3246,0.01815 -5.02604,0.324876 -5.83996,0.798649 -1.43425,0.834874 -1.5141,1.772953 -0.17983,2.113246 0.56972,0.145298 1.3789,0.548604 1.79834,0.895902 0.41945,0.347318 0.97706,0.522908 1.23868,0.390673 0.26164,-0.132235 0.6622,0.007 0.8904,0.309075 0.53246,0.704842 2.16923,1.615538 2.91763,1.62367 0.31882,0.0034 0.6532,0.19649 0.74311,0.428584 0.0899,0.232095 0.42428,0.422797 0.74311,0.42364 0.31885,8.45e-4 0.97647,0.387291 1.4614,0.858814 1.30816,1.272065 3.46251,2.489986 3.63182,2.053083 0.23182,-0.598277 0.64595,-0.446689 0.64595,0.236543 0,0.717868 0.94072,1.631633 1.40353,1.363225 0.17384,-0.100816 0.51009,0.08516 0.74674,0.412925 0.88289,1.223077 2.12507,1.097445 3.47211,-0.350284 1.07972,-1.160409 1.26281,-1.562647 1.3007,-2.857498 0.10599,-3.625518 0.0751,-5.185185 -0.10594,-5.364716 -0.10671,-0.10584 -0.99478,-0.285165 -1.97403,-0.398088 -0.97928,-0.112905 -1.8615,-0.414387 -1.96061,-0.670075 -0.10028,-0.258751 -0.51419,-0.362662 -0.93326,-0.234896 -0.4141,0.126254 -0.93949,0.07008 -1.16737,-0.124451 -0.22791,-0.194533 -0.94332,-0.447117 -1.59009,-0.561282 -0.64678,-0.114164 -1.2059,-0.245699 -1.2423,-0.292591 -0.0364,-0.04689 -0.39357,-0.139955 -0.79375,-0.206871 -0.40018,-0.06693 -1.26338,-0.31067 -1.91822,-0.541499 -0.63434,-0.223598 -1.89341,-0.316678 -3.28816,-0.305778 z m 10.4474,6.981791 c 0.15407,0 0.2067,0.189895 0.11679,0.421989 -0.0899,0.232095 -0.21587,0.42199 -0.28009,0.42199 -0.0642,0 -0.11678,-0.189895 -0.11678,-0.42199 0,-0.232094 0.12599,-0.421989 0.28008,-0.421989 z m 15.84553,0.478861 c -0.22511,0.04559 -0.51523,0.438418 -0.51523,0.811834 0,0.218401 0.11213,0.397265 0.24908,0.397265 0.31216,0 0.64582,-0.82275 0.4563,-1.125034 -0.0474,-0.07556 -0.11515,-0.09927 -0.19015,-0.08407 z m -1.14827,0.772271 c -0.33031,-0.0126 -0.91839,0.564527 -1.17717,1.42834 -0.19807,0.661081 -0.25882,1.338286 -0.13489,1.505812 0.26215,0.354345 1.2434,-1.089852 1.50121,-2.209678 0.11449,-0.497287 0.009,-0.716929 -0.18915,-0.724474 z m -2.01278,2.124787 c -0.14552,0 -0.26458,0.189897 -0.26458,0.421991 0,0.232094 0.11906,0.421989 0.26458,0.421989 0.14552,0 0.26458,-0.189895 0.26458,-0.421989 0,-0.232094 -0.11906,-0.421991 -0.26458,-0.421991 z m -17.71156,1.26597 c -0.15409,0 -0.28009,0.189896 -0.28009,0.421991 0,0.232093 0.0526,0.42199 0.11679,0.42199 0.0642,0 0.19018,-0.189897 0.28009,-0.42199 0.0899,-0.232095 0.0373,-0.421991 -0.11679,-0.421991 z m 15.87498,0.843981 c -0.15409,0 -0.28009,0.189895 -0.28009,0.42199 0,0.232094 0.0526,0.421991 0.11679,0.421991 0.0642,0 0.19018,-0.189897 0.28009,-0.421991 0.0899,-0.232095 0.0373,-0.42199 -0.11679,-0.42199 z m -2.96106,2.361329 c -0.10972,-0.02021 -0.25106,0.102938 -0.41291,0.38243 -0.24668,0.426091 -0.21578,0.689108 0.14161,1.204978 0.42084,0.607329 0.46143,0.578591 0.51004,-0.357699 0.0397,-0.765035 -0.0559,-1.196034 -0.23874,-1.229709 z m -33.69246,4.462216 c -0.19785,0.02726 -0.42129,0.239555 -0.57258,0.569523 -0.31644,0.690223 -0.25956,0.914097 0.50128,1.971486 1.02739,1.427824 1.78437,2.172624 1.78437,1.755541 0,-0.777128 -1.17054,-4.04096 -1.52754,-4.259462 -0.0567,-0.03469 -0.11959,-0.04619 -0.18553,-0.03709 z m -11.91036,7.57769 c -0.4173,-0.0434 -0.80853,0.35137 -1.1808,1.1852 -0.97856,2.19187 -1.27379,7.04327 -0.64133,10.54068 0.10134,0.56022 0.58206,2.23543 1.06818,3.72291 0.48611,1.48747 0.88365,2.88287 0.88365,3.10064 0,0.21776 0.24915,1.24229 0.55398,2.27644 0.30467,1.03415 0.5034,2.12289 0.4413,2.41985 -0.13954,0.66767 -1.60578,-2.85647 -1.79109,-4.3048 -0.16592,-1.29659 -0.9499,-1.627 -1.17512,-0.49535 -0.24865,1.24962 0.59037,4.11994 1.62935,5.5749 1.2178,1.70535 0.92792,2.09057 -0.41547,0.55221 -0.67767,-0.77599 -1.17083,-1.77406 -1.38337,-2.79981 -0.46593,-2.24845 -0.91829,-1.73324 -0.82579,0.94042 0.0766,2.21236 0.45442,3.53349 1.57456,5.50236 0.32877,0.57787 0.59791,1.195 0.59791,1.37145 0,0.17646 0.13959,0.32061 0.31005,0.32061 0.17047,0 0.80814,0.82949 1.41695,1.84292 0.72935,1.21401 1.45836,1.97323 2.13736,2.22617 0.6654,0.24789 1.123,0.71749 1.29191,1.32448 0.32702,1.17502 0.77395,0.98869 0.86815,-0.36182 0.0779,-1.11758 -1.70387,-5.87572 -2.20038,-5.87572 -0.16225,0 -0.45236,-0.46782 -0.6444,-1.04014 -0.19208,-0.57231 -0.4327,-0.95863 -0.53485,-0.85799 -0.10216,0.1007 -0.41172,-0.0895 -0.68781,-0.42281 -0.48771,-0.58885 -0.4858,-0.60704 0.0527,-0.61981 0.30488,-0.008 0.75899,0.34771 1.00925,0.78877 0.45548,0.80274 1.48929,1.4733 1.4676,0.95195 -0.006,-0.15232 -0.1196,-1.13145 -0.25165,-2.1759 -0.49908,-3.94777 1.16739,-7.19233 3.00754,-5.8551 0.38213,0.27769 0.69506,0.65505 0.69506,0.83903 0,0.18399 0.52879,0.70776 1.17512,1.16377 1.81811,1.28269 7.53254,10.79037 8.61445,14.33284 0.3638,1.19118 0.75075,2.16939 0.85989,2.17256 0.10915,0.003 0.19844,0.27711 0.19844,0.60745 0,0.82502 1.28629,3.19706 1.73373,3.19706 0.20023,0 0.48889,0.37166 0.64132,0.82586 0.15264,0.45487 0.68363,0.94705 1.18184,1.09619 0.49747,0.14881 0.96758,0.53411 1.04489,0.85552 0.0806,0.33584 0.3215,0.47369 0.56481,0.32472 0.26308,-0.16102 0.74478,0.20498 1.26712,0.96349 0.46336,0.67286 1.21786,1.55273 1.67689,1.955 0.97756,0.85668 1.06275,0.87526 1.2914,0.28517 0.19654,-0.50718 -0.0191,-2.126 -0.53072,-3.985 -0.5175,-1.87976 -1.19838,-5.53294 -1.19838,-6.4304 0,-0.43218 -0.12121,-0.97878 -0.26924,-1.21487 -0.14803,-0.23611 -0.28,-2.22018 -0.29352,-4.40947 -0.0214,-3.5125 0.0613,-4.26838 0.70227,-6.42464 l 0.72658,-2.44291 -0.61185,-1.0385 c -0.33624,-0.57084 -0.81004,-1.03765 -1.05314,-1.03765 -0.24313,0 -0.65749,-0.37979 -0.92088,-0.84399 -0.2634,-0.46419 -0.63061,-0.84399 -0.81598,-0.84399 -0.18531,0 -0.49395,-0.24422 -0.68625,-0.54314 -0.50493,-0.78491 -2.40831,-2.18235 -2.80088,-2.05638 -0.18383,0.059 -0.40084,-0.16963 -0.48212,-0.5077 -0.0814,-0.33809 -0.41467,-0.72096 -0.74053,-0.8514 -0.32584,-0.13044 -0.94234,-0.71738 -1.36994,-1.30388 -0.42759,-0.58651 -0.90778,-1.06623 -1.06711,-1.06651 -0.15936,-3e-4 -0.50504,-0.38063 -0.76843,-0.84481 -0.2634,-0.46419 -0.72938,-0.84399 -1.03561,-0.84399 -0.30625,0 -0.70554,-0.37978 -0.88728,-0.84397 -0.18177,-0.46419 -0.55147,-0.84398 -0.82164,-0.84398 -0.27018,0 -0.78191,-0.36402 -1.13687,-0.80937 -0.355,-0.44534 -1.264,-1.24055 -2.02004,-1.76709 -0.75605,-0.52652 -1.37459,-1.09684 -1.37459,-1.26678 0,-0.16996 -0.59532,-0.6242 -1.32292,-1.00964 -0.7276,-0.38546 -1.32291,-0.87534 -1.32291,-1.08878 0,-0.21344 -0.18999,-0.38819 -0.42219,-0.38819 -0.2322,0 -0.74512,-0.36667 -1.13999,-0.81514 -0.39489,-0.44846 -1.05825,-0.87573 -1.47381,-0.94947 -0.41555,-0.0737 -1.02795,-0.56161 -1.36114,-1.08383 -0.35952,-0.56343 -0.69967,-0.86214 -1.02423,-0.8959 z m 100.11932,2.47837 c 0.54223,0.0622 1.0587,0.55321 1.67637,1.45801 0.5457,0.79939 0.99219,1.82635 0.99219,2.28303 0,0.45668 0.10321,0.89435 0.22944,0.97173 0.40217,0.2465 2.68096,5.96436 2.68096,6.72711 0,1.03042 -0.992,2.7966 -3.82869,6.81448 -3.97814,5.63464 -5.08682,7.12322 -5.87612,7.89088 -0.4104,0.39916 -0.90977,1.04093 -1.10948,1.42668 -0.19973,0.38576 -0.4718,0.70141 -0.60463,0.70141 -0.13282,0 -0.55274,0.32514 -0.93326,0.72282 -0.38055,0.39766 -0.84804,0.75962 -1.03923,0.80441 -0.19119,0.0448 -0.67977,0.45712 -1.08519,0.9157 -0.40545,0.45855 -1.868,1.79793 -3.25045,2.977 -2.66954,2.27686 -3.01813,2.4802 -2.84633,1.65828 0.10334,-0.49452 1.63118,-1.93483 4.62089,-4.35588 0.75785,-0.6137 1.51672,-1.38204 1.68621,-1.70774 0.16946,-0.3257 0.52236,-0.5926 0.78443,-0.5926 0.2621,0 1.02259,-0.66464 1.68982,-1.47697 0.66725,-0.81233 1.28397,-1.47697 1.37046,-1.47697 0.17092,0 3.00772,-3.7536 5.50407,-7.28261 3.25603,-4.60303 3.85917,-5.66987 3.85917,-6.8285 0,-1.25922 -0.68077,-3.61246 -1.04489,-3.61246 -0.13048,0 -0.37467,-0.66615 -0.54313,-1.48026 -0.16846,-0.81412 -0.53819,-1.67761 -0.82163,-1.91956 -0.28348,-0.24196 -0.4572,-0.59139 -0.38553,-0.77641 0.16248,-0.41928 -1.63269,-2.9976 -2.08719,-2.9976 -0.43236,0 -2.79053,2.8697 -2.79053,3.3957 0,0.22145 0.19145,0.4022 0.42529,0.4022 0.30601,0 0.36798,0.20704 0.22169,0.73849 -0.11176,0.40616 -0.17462,1.21322 -0.13951,1.79345 0.11353,1.87478 0.0866,2.72309 -0.11886,3.74023 -0.18499,0.91539 -0.15557,0.95781 0.36018,0.51759 0.91094,-0.77756 0.44493,0.49633 -0.51109,1.39702 -0.44206,0.4165 -0.74353,0.85323 -0.67024,0.97008 0.17616,0.28096 -1.99831,3.49151 -2.36934,3.49789 -0.15856,0.003 -0.42926,0.49815 -0.60153,1.10115 -0.18666,0.65337 -0.45934,1.00669 -0.6754,0.87447 -0.4698,-0.28753 -1.53482,1.51711 -1.35133,2.28963 0.0968,0.40737 -0.48983,1.10865 -1.87224,2.23934 -1.10696,0.9054 -2.32778,2.06627 -2.71301,2.57975 -0.87143,1.16151 -2.79149,2.73634 -3.3357,2.73634 -0.50287,0 -0.50633,0.72614 -0.0103,2.10995 0.20797,0.58024 0.38256,1.46695 0.38756,1.96984 0.005,0.50286 0.15814,0.99827 0.34004,1.10194 0.18192,0.10363 0.23823,0.34691 0.12507,0.53986 -0.57864,0.98644 -1.9754,-3.15485 -3.13107,-9.28378 -0.85241,-4.52043 -0.42307,-6.70194 1.61694,-8.21563 0.94166,-0.69869 5.35143,-5.29097 7.27604,-7.57685 0.58207,-0.69137 1.53457,-1.66865 2.11665,-2.17177 0.58209,-0.50313 1.35599,-1.33631 1.71979,-1.85198 0.36381,-0.51565 0.98568,-1.15706 1.38184,-1.42504 0.39614,-0.26797 1.38309,-1.34774 2.19313,-2.40007 1.05097,-1.36529 1.79051,-1.99374 2.48771,-1.91378 z m 7.34321,1.60718 c 0.15536,0.0248 0.46281,0.22885 0.93379,0.59178 1.04452,0.80488 1.08053,0.89031 0.60719,1.44235 -0.44997,0.52478 -0.56623,0.46343 -1.10072,-0.57776 -0.53514,-1.04258 -0.69921,-1.49774 -0.44026,-1.45637 z m -73.35978,1.12999 c 0.74957,0.007 1.58486,0.29528 1.92808,0.72693 0.17322,0.2179 0.54059,0.33486 0.81594,0.26046 0.45215,-0.12218 1.13459,0.30289 3.27577,2.03742 0.38627,0.31289 0.96266,0.56869 1.28106,0.56869 0.3184,0 0.8816,0.37979 1.25162,0.84398 0.37001,0.46419 0.8949,0.84398 1.16633,0.84398 0.27141,0 0.4935,0.18989 0.4935,0.42199 0,0.23209 0.23244,0.42198 0.51626,0.42198 0.28381,0 0.62594,0.31411 0.76066,0.69811 0.14484,0.41274 0.41712,0.5925 0.66612,0.44012 0.23151,-0.14177 0.49173,-0.0761 0.57772,0.14589 0.086,0.22195 0.50636,0.40385 0.93432,0.40385 0.42799,0 0.77825,0.18991 0.77825,0.422 0,0.23209 0.17859,0.42199 0.39687,0.42199 0.21828,0 0.635,0.37979 0.92604,0.84398 0.29104,0.46419 0.75256,0.84397 1.02579,0.84397 0.27321,0 0.64513,0.28485 0.82629,0.63299 0.18116,0.34814 0.48889,0.63299 0.68418,0.63299 0.44061,0 2.7926,2.0225 3.15227,2.71077 0.14552,0.2785 0.47295,0.63052 0.72761,0.78301 0.25466,0.15247 0.46302,0.60492 0.46302,1.00469 0,0.68509 0.0193,0.6847 0.33538,-0.005 0.31737,-0.69217 0.36397,-0.69101 0.87437,0.0247 0.73749,1.03412 1.47475,1.7862 2.05258,2.09263 0.29279,0.15518 0.43788,0.53957 0.3669,0.97255 -0.0906,0.55292 0.0206,0.67454 0.48678,0.53243 0.45315,-0.13812 0.93559,0.34012 1.93323,1.91463 0.73133,1.1542 1.51783,2.21323 1.74769,2.35391 0.29723,0.18197 0.36973,0.56332 0.25062,1.32036 -0.10139,0.64426 -0.0552,1.06404 0.11731,1.06404 0.15677,0 0.21662,-0.28484 0.1328,-0.63298 -0.32409,-1.34702 0.5408,-0.52427 2.00453,1.90638 1.22087,2.02737 1.50381,2.75012 1.40354,3.5869 -0.0691,0.57638 -0.17127,1.04756 -0.22686,1.04756 -0.0556,0 -0.783,-1.04443 -1.61594,-2.32095 -0.83296,-1.27652 -1.60668,-2.32094 -1.71979,-2.32094 -0.19489,0 -0.71786,-0.6896 -1.93476,-2.55172 -0.99179,-1.51824 -1.2287,-1.08861 -0.99785,1.81324 0.23252,2.92274 0.21844,5.72346 -0.0305,6.12051 -0.44786,0.71429 -0.69123,-1.02428 -0.72811,-5.19657 -0.0433,-4.89801 -0.42368,-7.10864 -1.1467,-6.66613 -0.2312,0.14147 -0.3982,0.79092 -0.40307,1.56761 -0.007,1.12175 -0.0583,1.22478 -0.33073,0.66927 -0.25143,-0.5124 -0.5261,-0.57561 -1.24851,-0.28848 -0.50932,0.20245 -1.32587,0.4444 -1.81435,0.53738 -0.4885,0.093 -1.02428,0.33151 -1.19062,0.53078 -0.16637,0.19933 -0.62974,0.31211 -1.02992,0.25056 -1.20983,-0.18593 -0.77182,1.09003 0.59531,1.73411 0.3638,0.17139 1.03214,0.75391 1.48519,1.29482 0.45307,0.54093 1.16745,1.11461 1.5875,1.27503 0.42007,0.16045 0.91526,0.48307 1.10068,0.71623 0.63722,0.80133 0.76793,-0.20492 0.43976,-3.38909 -0.12644,-1.22709 -0.0901,-1.79346 0.11473,-1.79346 0.1647,0 0.29922,0.53203 0.29922,1.1819 0,0.64987 0.1249,1.38029 0.27749,1.62366 0.17939,0.28617 0.20079,1.17223 0.0605,2.50722 -0.31041,2.95308 -0.81399,2.94412 -4.3775,-0.0791 -0.69371,-0.58854 -1.52715,-1.00997 -1.85208,-0.93628 l -0.59066,0.13349 0.57619,0.84399 c 0.97819,1.4324 1.25732,1.68912 1.80506,1.65993 0.29105,-0.0159 0.7673,0.29367 1.05834,0.68656 0.29104,0.39292 1.39237,1.13369 2.44738,1.64593 1.05503,0.51224 1.91823,1.05873 1.91823,1.21488 0,0.3382 1.16245,1.1405 2.18953,1.51156 l 0.73433,0.2654 -0.53589,-0.85468 c -0.29474,-0.47009 -0.65495,-0.85471 -0.80047,-0.85471 -0.44627,0 -0.29355,-0.7892 0.24083,-1.24536 0.3689,-0.31487 0.77946,-0.24691 1.52135,0.25138 0.55887,0.37535 1.73031,1.01786 2.60344,1.42751 0.87312,0.40968 1.79424,0.87873 2.04689,1.04262 0.71372,0.46294 1.12057,-1.62355 0.62529,-3.20696 -0.21653,-0.69236 -0.27546,-1.31819 -0.13695,-1.45471 0.13372,-0.13174 0.24289,0.056 0.24289,0.41787 0,0.36183 0.11906,0.65769 0.26459,0.65769 0.14552,0 0.26458,0.34215 0.26458,0.75992 0,0.41778 0.14883,0.99647 0.33073,1.28658 0.1819,0.29012 0.34581,1.0407 0.36433,1.66734 0.0336,1.13928 0.28079,3.05388 0.42115,3.26384 0.0408,0.0612 0.70718,-0.0502 1.48053,-0.24725 0.77335,-0.19708 2.11265,-0.39861 2.97603,-0.44838 1.57126,-0.0904 5.36011,-1.44609 7.63621,-2.73221 1.6697,-0.94347 3.9889,-2.81389 3.9889,-3.21685 0,-0.18313 0.16256,-0.33299 0.36121,-0.33299 0.19865,0 0.66406,-0.37977 1.03405,-0.84396 0.37002,-0.46419 0.83992,-0.84399 1.04439,-0.84399 0.20447,0 0.71397,-0.5697 1.13222,-1.26597 0.41825,-0.6963 0.96573,-1.26597 1.21647,-1.26597 0.25075,0 1.05834,-0.75957 1.79473,-1.68795 0.73638,-0.92838 1.44319,-1.68797 1.57043,-1.68797 0.12727,0 0.44664,-0.37979 0.71004,-0.84397 0.26339,-0.46419 0.58912,-0.84399 0.72398,-0.84399 0.20006,0 2.3565,-2.5636 2.84788,-3.38581 0.0728,-0.1217 0.78714,-1.01309 1.5875,-1.98055 4.85766,-5.87192 8.46163,-12.35097 7.8083,-14.03693 -0.21511,-0.55509 -0.0501,-0.54264 0.77823,0.0594 0.77867,0.56585 0.92575,1.64709 0.1819,1.33685 -0.37281,-0.15551 -0.52886,0.0831 -0.64541,0.98822 -0.15926,1.23661 -3.95841,8.36031 -4.89273,9.17417 -0.29035,0.25292 -1.04653,1.16126 -1.68052,2.01845 -0.63397,0.85717 -2.46258,3.08846 -4.06331,4.9584 -1.60073,1.86994 -3.60483,4.25437 -4.45346,5.29878 -0.84862,1.04442 -1.72434,1.89894 -1.94614,1.89894 -0.22177,0 -0.7647,0.48578 -1.20663,1.07889 -0.44194,0.5931 -1.41168,1.56313 -2.15492,2.15609 -0.74324,0.59299 -1.58946,1.42012 -1.8805,1.83796 -0.29104,0.41784 -1.06494,0.98548 -1.71979,1.26104 -0.65484,0.27553 -1.30969,0.6468 -1.45521,0.82584 -0.75587,0.92993 -7.57021,3.51014 -8.89659,3.3685 -0.49115,-0.0525 -1.10083,0.0457 -1.35496,0.21841 -0.2541,0.17275 -0.73035,0.30376 -1.05833,0.29259 -2.73851,-0.10001 -3.78242,-0.008 -4.00957,0.35441 v 8.5e-4 c -0.43897,0.70011 -0.73416,0.47582 -0.55552,-0.42199 0.14653,-0.73631 0.0473,-0.84399 -0.77618,-0.84399 -0.51914,0 -0.94361,-0.16876 -0.94361,-0.37501 0,-0.20627 -0.44648,-0.5027 -0.99219,-0.65852 -1.31385,-0.37535 -2.7498,-1.13902 -3.24113,-1.72342 -0.39145,-0.4656 -3.07173,-2.53251 -4.10104,-3.16244 -2.22741,-1.36318 -3.53067,-2.3227 -4.07055,-2.99762 -0.34703,-0.43388 -0.82328,-0.79479 -1.05834,-0.80277 -0.45003,-0.0143 -1.35339,-0.94821 -1.35339,-1.39949 0,-0.14578 0.25447,-0.21935 0.56586,-0.16401 1.02978,0.18285 0.80492,-0.86162 -0.48525,-2.25254 -0.6992,-0.75379 -1.32296,-1.43836 -1.38595,-1.52064 -0.0631,-0.0823 0.0262,-0.37399 0.19843,-0.64864 0.50017,-0.79775 0.37891,-2.01847 -0.2005,-2.01847 -0.28244,0 -0.59105,0.19988 -0.68574,0.44424 -0.43934,1.13376 -0.93718,-0.17226 -1.01389,-2.65969 -0.0507,-1.64323 -0.52318,-1.19115 -0.57877,0.55385 -0.0605,1.89568 -0.0661,1.91302 -0.42789,1.33604 -0.23632,-0.37696 -0.22722,-0.89222 0.0393,-2.18 0.19195,-0.92766 0.44598,-1.59108 0.5643,-1.4745 0.2698,0.26596 0.74758,-2.4837 0.48162,-2.77178 -0.10713,-0.11611 -0.28072,-1.12835 -0.386,-2.24925 -0.1053,-1.12091 -0.35499,-2.13835 -0.55502,-2.26078 -0.20002,-0.12242 -0.3638,-0.48688 -0.3638,-0.81019 0,-0.94142 -0.82883,-0.67766 -0.99166,0.31567 -0.13022,0.79412 -0.18388,0.73011 -0.44339,-0.52748 -0.26815,-1.29946 -0.38557,-1.42674 -1.27589,-1.38384 -0.74011,0.0357 -1.01938,-0.14549 -1.13739,-0.73848 -0.086,-0.43216 -0.32853,-0.78546 -0.53898,-0.78546 -0.21045,0 -0.58912,-0.18136 -0.84182,-0.40221 -0.41323,-0.36116 -1.25945,-0.94153 -3.23752,-2.22205 -0.36381,-0.2355 -0.86817,-0.59612 -1.12085,-0.80111 -0.67527,-0.54788 -1.78427,-0.45356 -1.82367,0.15495 -0.0869,1.34312 0.0618,7.64158 0.1881,7.96753 0.0781,0.20143 0.36864,0.36677 0.64595,0.36677 0.27736,0 0.62675,0.36404 0.77618,0.80937 0.14944,0.44531 0.6585,0.94543 1.13119,1.11101 0.47271,0.1656 1.22878,0.75021 1.68053,1.29977 0.45175,0.54955 1.0042,0.99975 1.22732,0.99975 0.2231,0 0.55367,0.28485 0.73483,0.633 0.18116,0.34813 0.48199,0.63297 0.66868,0.63297 0.18672,0 0.83828,0.42427 1.44746,0.94289 1.08793,0.92624 1.11412,0.92834 1.48001,0.1303 0.26316,-0.57392 0.28644,-0.89724 0.0796,-1.10112 -0.31396,-0.30948 -0.0808,-2.08193 0.27387,-2.08193 0.33729,0 0.54528,5.19464 0.23204,5.79658 -0.3256,0.62582 -1.53583,0.72188 -1.53583,0.12202 0,-0.52753 -2.18021,-2.12066 -2.90215,-2.12066 -0.52549,0 -0.53062,0.0464 -0.11626,1.05498 0.23834,0.58024 0.37785,1.05496 0.31007,1.05496 -0.26511,0 -1.92932,-0.9963 -2.05415,-1.2297 -0.22455,-0.41988 -1.15485,-1.30848 -1.91822,-1.8322 -0.85296,-0.5852 -0.95115,-1.15799 -0.19843,-1.15799 0.29103,0 0.52905,-0.23737 0.52606,-0.52749 -0.003,-0.5527 -1.64001,-2.42644 -2.11925,-2.42644 -0.15267,0 -0.56018,-0.29533 -0.90538,-0.65607 -0.41537,-0.43407 -0.68577,-0.50589 -0.79941,-0.21264 -0.0944,0.24372 0.13284,0.6643 0.50488,0.93464 0.75191,0.54642 0.86907,1.10845 0.30331,1.45472 -0.401,0.24543 -1.68362,-0.69089 -2.88147,-2.10337 -0.66453,-0.78358 -0.69646,-0.92628 -0.30694,-1.38053 0.5516,-0.64331 0.29411,-2.11251 -0.43513,-2.48166 -0.87203,-0.44143 -0.40769,-1.24274 0.80203,-1.38384 0.74747,-0.0872 1.07092,0.02 0.95602,0.31649 -0.10115,0.26093 0.0539,0.44837 0.37102,0.44837 0.45585,0 0.55367,-0.29275 0.59997,-1.79345 0.1737,-5.63531 0.14684,-5.78302 -1.05937,-5.79578 -0.93464,-0.0102 -1.81294,1.72697 -2.31459,4.57843 -0.2505,1.42392 -0.54485,2.58881 -0.65421,2.58881 -0.33972,0 -0.51109,-1.78532 -0.24701,-2.57233 0.13806,-0.4114 0.25114,-1.24831 0.25114,-1.85939 0,-1.35468 1.52886,-3.80138 2.58227,-4.13253 0.20939,-0.0658 0.44932,-0.0953 0.69916,-0.0931 z m 76.46087,0.7838 c 0.0949,-0.0254 0.16174,0.0679 0.16174,0.25221 0,0.24579 -0.11906,0.44671 -0.26459,0.44671 -0.14552,0 -0.26458,-0.0839 -0.26458,-0.18627 0,-0.10238 0.11906,-0.30326 0.26458,-0.44671 0.0364,-0.0359 0.0712,-0.0575 0.10285,-0.0659 z m 1.86602,1.5429 c 0.0642,0 0.19019,0.1899 0.28009,0.422 0.0899,0.2321 0.0373,0.42199 -0.11678,0.42199 -0.15412,0 -0.28009,-0.18989 -0.28009,-0.42199 0,-0.2321 0.0526,-0.422 0.11678,-0.422 z m 2.76056,2.54843 c 0.15245,-0.0199 0.37822,0.0597 0.67128,0.23902 0.22936,0.14037 0.35837,0.40744 0.28628,0.59342 -0.16675,0.43034 -1.18907,0.0215 -1.18907,-0.47556 0,-0.21752 0.0791,-0.33703 0.23151,-0.35688 z m -19.49336,0.40551 c -0.32972,0 -0.84645,0.95378 -0.84645,1.56185 0,0.68633 0.32557,0.70469 0.74104,0.042 0.35886,-0.57237 0.42651,-1.6039 0.10541,-1.6039 z m 15.38301,0.26374 c 0.0949,-0.0147 0.25606,0.0738 0.43926,0.25632 0.29104,0.2899 0.52916,0.67769 0.52916,0.86212 0,0.18444 -0.23812,0.13222 -0.52916,-0.11621 -0.29104,-0.24842 -0.52917,-0.63622 -0.52917,-0.86211 0,-0.0853 0.033,-0.13131 0.0899,-0.14011 z m -14.00996,0.30331 c -0.0317,0.008 -0.0665,0.03 -0.10284,0.0659 -0.14552,0.14345 -0.26458,0.34437 -0.26458,0.44671 0,0.10239 0.11906,0.18627 0.26458,0.18627 0.14552,0 0.26458,-0.20092 0.26458,-0.44671 0,-0.18434 -0.0669,-0.27765 -0.16174,-0.25221 z m 19.99977,0.4022 c 0.1252,-0.002 0.26834,0.0783 0.44339,0.24068 0.42825,0.39701 0.39227,0.45434 -0.29197,0.46566 -0.56922,0.009 -0.7018,-0.11367 -0.48887,-0.4533 0.10464,-0.16685 0.21225,-0.25099 0.33745,-0.25304 z m 1.26402,1.1407 c 0.29104,0 0.67045,0.27187 0.84336,0.60414 0.17288,0.33227 0.96152,1.03167 1.75233,1.55444 0.79082,0.52276 1.43764,1.20038 1.43764,1.5058 0,0.30544 -0.054,0.55551 -0.11988,0.55551 -0.31554,0 -1.68571,-1.12703 -2.41848,-1.98961 -0.45018,-0.53007 -0.94207,-0.96432 -1.09243,-0.96432 -0.15034,0 -0.42138,-0.28484 -0.60254,-0.63298 -0.27411,-0.52678 -0.24037,-0.63298 0.2,-0.63298 z m -88.79342,0.0346 c 0.12981,0.0238 0.27644,0.36942 0.38603,1.06569 0.11462,0.72836 0.0489,1.22528 -0.19378,1.47037 -0.51152,0.51679 -0.49869,0.54497 -0.49869,-1.09371 0,-0.97187 0.13957,-1.47302 0.30644,-1.44235 z m 84.2645,1.69126 c 0.40029,-0.1086 3.27059,3.80022 3.27059,4.49436 0,0.21777 0.29765,0.61257 0.66146,0.87694 0.3638,0.26438 0.66145,0.71617 0.66145,1.00388 0,0.28768 0.2679,0.91142 0.59532,1.38629 0.58996,0.85569 0.8469,1.41294 1.72754,3.74681 0.25048,0.66388 0.71461,1.80323 1.03145,2.53194 0.31687,0.72871 1.0227,2.70123 1.56839,4.38392 0.5457,1.68267 1.07675,3.05943 1.18028,3.05943 0.1035,0 0.26429,0.64593 0.35708,1.43493 0.0928,0.78901 0.32928,1.64736 0.52554,1.9072 0.19632,0.25982 0.49972,1.37044 0.6744,2.46848 0.17465,1.09804 0.4196,2.30517 0.54414,2.68277 0.12457,0.37758 0.30343,1.42202 0.39791,2.32094 0.16269,1.54789 0.15332,1.57853 -0.1819,0.57941 -0.19466,-0.58023 -0.5198,-1.81456 -0.72242,-2.74293 -0.34282,-1.5699 -3.37192,-11.6051 -4.07677,-13.50616 -1.52964,-4.12582 -3.70864,-8.70816 -5.8177,-12.23357 -1.38795,-2.32002 -2.48058,-4.28729 -2.42777,-4.37156 0.008,-0.0121 0.018,-0.0196 0.031,-0.0231 z m -83.17206,0.99151 c 0.0529,-0.007 0.13568,0.0718 0.25477,0.23488 0.1819,0.24917 0.56885,0.72461 0.85989,1.05746 0.38838,0.44415 0.42357,0.60578 0.1323,0.60578 -0.5183,0 -1.32292,-0.98452 -1.32292,-1.61873 0,-0.17918 0.023,-0.27226 0.076,-0.27939 z m 13.30614,0.38242 c 0.0596,0.0113 0.12991,0.16489 0.20722,0.48628 0.093,0.38658 0.16899,1.50429 0.16899,2.48331 0,0.97901 0.14883,2.02651 0.33073,2.32753 0.26749,0.44268 0.22953,0.51831 -0.19844,0.39645 -0.43759,-0.12455 -0.5529,-0.5745 -0.66611,-2.60117 -0.10467,-1.87385 -0.0212,-3.1259 0.15761,-3.0924 z m -14.61768,0.85058 c 0.01,-0.002 0.019,8e-5 0.0289,0.006 0.047,0.0273 0.0994,0.1398 0.1669,0.33216 0.1212,0.34544 0.14911,1.06285 0.062,1.594 -0.13663,0.83327 -0.19118,0.87114 -0.39997,0.27611 -0.133,-0.37929 -0.16092,-1.09669 -0.062,-1.59401 0.0804,-0.40386 0.13832,-0.6014 0.20412,-0.61402 z m 22.20533,0.26951 c -0.32278,0 -0.33559,0.11819 -0.0677,0.63298 0.27519,0.52884 0.23716,0.63299 -0.23204,0.63299 -0.30885,0 -0.56171,-0.20338 -0.56171,-0.45249 0,-0.24911 -0.20338,-0.39109 -0.45164,-0.31484 -0.57333,0.1761 -0.81161,1.55394 -0.84492,4.88173 -0.0204,2.04224 0.0605,2.63744 0.35761,2.63744 0.21106,0 0.47892,-0.23737 0.59531,-0.52748 0.11636,-0.29012 0.80666,-1.27472 1.53426,-2.18825 0.7276,-0.91352 1.38218,-1.73622 1.45468,-1.82808 0.0726,-0.0919 -0.10605,-0.44981 -0.39688,-0.79535 -0.29078,-0.34554 -0.49469,-0.82472 -0.45318,-1.06487 0.10766,-0.62316 -0.46551,-1.61378 -0.93379,-1.61378 z m 36.95168,0.8481 c -0.0185,-0.003 -0.038,-0.003 -0.0584,0.002 -0.0977,0.0236 -0.21159,0.14659 -0.30488,0.38738 -0.0837,0.21606 -0.0438,0.49976 0.0889,0.63051 0.13267,0.13076 0.30935,-0.0463 0.39275,-0.39314 0.0899,-0.37389 0.0116,-0.60153 -0.11835,-0.62639 z m 23.52359,8.5e-4 c 0.92647,0.006 3.5541,3.15226 5.01779,6.00924 0.62402,1.21809 1.38414,2.64777 1.68928,3.17728 0.30515,0.52952 0.47273,1.09392 0.37259,1.25361 -0.10012,0.1597 -0.50305,-0.36611 -0.89554,-1.1679 -0.96922,-1.97985 -3.82314,-6.32324 -4.15479,-6.32324 -0.14748,0 -0.40743,-0.35548 -0.57775,-0.79041 -0.17028,-0.43494 -0.58581,-0.90005 -0.92344,-1.03355 -0.51766,-0.20468 -1.29604,0.81056 -4.96609,6.4782 -2.39377,3.69664 -5.52698,8.10208 -6.96287,9.78985 -1.4359,1.68774 -3.4299,4.11291 -4.43073,5.38943 -2.17906,2.77926 -3.24213,4.00324 -3.48041,4.00643 -0.097,0.001 -0.26604,0.14497 -0.37518,0.31897 -0.10914,0.17407 -0.38872,0.31649 -0.62166,0.31649 -0.50972,0 -2.92798,3.60448 -2.92798,4.36414 0,0.95417 2.09644,4.91964 2.60087,4.91964 0.12092,0 0.37941,0.47475 0.57412,1.05498 0.19471,0.58023 0.45321,1.05497 0.57412,1.05497 0.12097,0 0.21963,0.26291 0.21963,0.58437 0,0.32142 0.32742,0.91465 0.72761,1.31789 0.40018,0.40323 1.5209,2.03928 2.49028,3.63554 0.96938,1.59628 1.89211,2.90201 2.05051,2.90201 0.15843,0 0.28784,0.20685 0.28784,0.45907 0,0.25221 0.7184,1.62896 1.59629,3.05943 0.87786,1.43046 1.66441,3.02761 1.7482,3.54983 0.0838,0.52219 0.25538,0.94947 0.38137,0.94947 0.34351,0 1.14795,2.68426 0.85164,2.84184 -0.14562,0.0773 -0.20682,1.36554 -0.14263,2.99844 0.10313,2.62387 0.0529,2.97579 -0.59738,4.20837 -1.1144,2.1123 -2.43223,1.73112 -3.27059,-0.94619 -1.09726,-3.50412 -1.02198,-5.27359 0.32969,-7.73511 0.42098,-0.76663 0.69596,-0.90246 1.40095,-0.69151 1.07979,0.32308 1.11543,-0.15088 0.15142,-2.01515 -1.08392,-2.09615 -1.32496,-2.45859 -1.63608,-2.45859 -0.15592,0 -0.28371,-0.20914 -0.28371,-0.46486 0,-0.2557 -2.1192,-3.81622 -4.70926,-7.9123 -6.66093,-10.53393 -6.81412,-10.93628 -5.21156,-13.66936 0.78628,-1.34098 3.38835,-4.53886 3.6933,-4.53886 0.27118,0 3.41681,-3.53878 5.16918,-5.81555 0.50933,-0.66173 1.52136,-1.85534 2.24896,-2.65227 0.72761,-0.79694 1.36139,-1.58464 1.40819,-1.75059 0.0468,-0.16597 0.82072,-1.23489 1.7198,-2.37536 0.89907,-1.14047 3.1018,-4.37543 4.89528,-7.18866 2.53766,-3.98055 3.41788,-5.11338 3.96874,-5.11003 z m 11.80082,0.58353 c 0.36502,-0.0637 0.94567,0.58349 0.94567,1.1514 0,0.53302 -0.35446,0.45591 -0.91569,-0.19863 -0.3511,-0.40944 -0.39881,-0.65575 -0.17106,-0.88024 0.041,-0.0404 0.0889,-0.0634 0.14108,-0.0726 z m -77.26803,0.41705 c 0.0949,0.007 0.16174,0.17533 0.16174,0.44671 0,0.36184 -0.11906,0.65771 -0.26458,0.65771 -0.14552,0 -0.26458,-0.17885 -0.26458,-0.39725 0,-0.2184 0.11906,-0.51428 0.26458,-0.65772 0.0364,-0.0359 0.0712,-0.0517 0.10284,-0.0494 z m 78.64831,1.2602 c 0.31377,0.0349 0.98184,0.57575 1.30895,1.15222 0.38158,0.67257 0.39116,0.80195 0.0579,0.80195 -0.38719,0 -1.53686,-1.34893 -1.53686,-1.80335 0,-0.11835 0.0654,-0.16248 0.17002,-0.15088 z m -88.65388,0.68821 c 0.18278,0 0.90692,1.12418 0.90692,1.40772 0,0.11085 -0.23813,0.10239 -0.52917,-0.019 -0.46059,-0.1921 -0.78603,-1.38878 -0.37775,-1.38878 z m 2.64892,1.458 c -0.0613,0.0196 -0.0723,0.10035 -0.0201,0.2349 0.0889,0.22945 0.2734,0.41704 0.41032,0.41704 0.38058,0 0.2966,-0.30218 -0.16174,-0.58271 -0.0589,-0.036 -0.10927,-0.0586 -0.15089,-0.0684 -0.0312,-0.008 -0.0571,-0.008 -0.0775,-8.4e-4 z m 47.81665,0.23654 c -0.1733,-0.003 -0.38862,0.18331 -0.47853,0.4154 -0.20301,0.5239 -0.11141,0.5239 0.39688,0 0.23849,-0.2458 0.27098,-0.41221 0.0817,-0.4154 z m 40.70339,0.43436 c 0.18118,0.0324 0.42108,0.20562 0.65473,0.50853 1.3694,1.77508 2.55103,3.59212 2.79828,4.30231 0.19127,0.54935 -0.0983,0.34057 -0.8759,-0.6305 -0.63873,-0.79765 -1.20104,-1.59375 -1.24954,-1.76957 -0.0485,-0.17576 -0.21736,-0.31977 -0.37568,-0.31977 -0.35208,0 -1.25574,-1.26142 -1.25574,-1.75308 0,-0.26125 0.12266,-0.37023 0.30385,-0.33792 z m -119.47005,0.42364 c -0.63738,0.0387 -1.43523,1.71086 -1.57562,3.77731 -0.24992,3.67901 1.35126,10.82755 2.63396,11.75967 0.34822,0.25306 0.63304,0.82414 0.63304,1.26927 0,0.44511 0.44648,1.40972 0.99219,2.1429 0.5457,0.73319 1.27555,1.70997 1.62212,2.17095 0.34658,0.46096 1.04595,1.11458 1.5539,1.45306 h 0.003 c 1.79182,1.19407 4.30991,0.50145 4.52065,-1.2437 0.052,-0.43085 -0.0338,-1.18555 -0.19069,-1.67726 -0.15687,-0.4917 -0.41529,-1.46393 -0.57412,-2.16023 l -0.28887,-1.26597 -0.709,1.29152 c -0.91737,1.67157 -2.07293,2.60912 -2.45825,1.99457 -0.20171,-0.32176 -0.009,-0.59697 0.66869,-0.95359 1.4221,-0.74854 1.82821,-2.43842 1.14723,-4.77707 -0.1819,-0.6247 -0.42749,-1.13745 -0.5452,-1.13904 -0.11769,-0.001 -0.14637,0.17016 -0.0641,0.38243 0.0823,0.21226 -1.1e-4,0.48247 -0.18294,0.60002 -0.26548,0.16984 -0.26593,0.22077 -0.003,0.24725 0.18425,0.0185 0.33073,0.57817 0.33073,1.26432 0,0.94746 -0.20942,1.43838 -0.90744,2.12643 -0.49903,0.49192 -0.96089,1.12474 -1.0263,1.40609 -0.20978,0.90232 -2.81632,-3.57888 -3.63025,-6.24084 -1.2804,-4.18745 -1.23598,-7.74602 0.10231,-8.15709 0.41032,-0.126 0.43614,-0.0204 0.17984,0.74343 -0.37624,1.1213 -0.11975,1.82904 0.54157,1.49426 0.43048,-0.21792 0.50694,-0.0432 0.50694,1.15554 0,1.59217 0.3837,2.62871 2.02985,5.48423 0.62976,1.09251 1.14514,2.22287 1.14514,2.51133 0,0.32876 0.0913,0.37488 0.24443,0.1236 0.2473,-0.40589 -0.21207,-4.07683 -0.58447,-4.67073 -0.10409,-0.16596 -0.18912,-0.66109 -0.18912,-1.10031 0,-0.43922 -0.10639,-0.69379 -0.23667,-0.5654 -0.13028,0.1284 -0.30523,-0.0503 -0.38862,-0.39726 -0.0834,-0.34681 -0.33952,-0.63052 -0.56896,-0.63052 -0.33089,0 -0.38267,-0.29595 -0.24908,-1.43163 0.15915,-1.35305 0.11671,-1.4584 -0.78133,-1.93111 -0.72552,-0.38188 -0.95033,-0.73061 -0.95033,-1.47448 0,-0.71249 -0.26652,-1.17337 -0.99219,-1.71599 -0.5457,-0.40804 -1.08717,-0.99991 -1.20354,-1.31459 -0.14647,-0.39605 -0.34152,-0.56429 -0.55398,-0.55138 z m 82.7018,0.82337 c -0.15473,0 -0.35989,0.20247 -0.45576,0.45002 -0.28478,0.73487 0.0397,0.89107 0.40255,0.19369 0.20865,-0.40106 0.22865,-0.64371 0.0532,-0.64371 z m -8.41185,0.16155 c -0.0317,-10e-4 -0.0665,0.0143 -0.10285,0.0494 -0.14552,0.14339 -0.26458,0.43932 -0.26458,0.65772 0,0.21838 0.11906,0.39726 0.26458,0.39726 0.14552,0 0.26458,-0.29588 0.26458,-0.6577 0,-0.27139 -0.0669,-0.44 -0.16173,-0.44672 z m -23.60681,1.5462 c -0.0861,-0.0143 -0.20495,0.0689 -0.34261,0.28847 -0.15944,0.25434 -0.2426,0.68975 -0.1845,0.9676 0.073,0.34916 0.21662,0.29191 0.46459,-0.18462 0.28186,-0.54185 0.25183,-1.04073 0.0625,-1.07145 z m -15.85947,1.25278 c 0.0547,-0.0128 0.16582,0.0281 0.33951,0.10464 0.28991,0.12792 0.88429,0.35721 1.32086,0.50936 0.43655,0.15216 1.23324,0.83402 1.77042,1.5157 0.53716,0.6817 1.14752,1.2396 1.35652,1.2396 0.20899,0 0.52049,0.2697 0.69194,0.59919 0.17145,0.32948 0.90056,0.93657 1.62004,1.34921 0.71951,0.41266 1.30794,0.90254 1.30794,1.08877 0,0.5456 -0.47723,0.39768 -1.788,-0.55468 -1.54977,-1.12602 -1.91484,-0.79293 -2.38591,2.17259 -0.28807,1.81346 -0.30009,2.97992 -0.0594,5.86416 0.16523,1.98021 0.39526,3.79425 0.51107,4.03117 0.11586,0.23694 0.28448,1.47465 0.37518,2.75118 0.0906,1.27651 0.40462,3.36288 0.69762,4.63612 0.29298,1.27325 0.5328,2.68468 0.5328,3.1369 0,0.45221 0.23704,1.6028 0.52657,2.55666 0.57272,1.88695 1.85467,7.69526 1.85467,8.40273 0,0.24116 -0.17267,0.16016 -0.38343,-0.17969 -0.49178,-0.793 -2.79156,-9.9162 -2.79156,-11.07393 0,-0.8774 -0.29848,-2.58638 -0.93793,-5.36884 -1.27486,-5.54737 -1.64137,-13.64592 -0.73845,-16.31998 0.26059,-0.77176 0.56558,-1.40359 0.678,-1.40359 0.11242,0 0.20463,-0.28485 0.20463,-0.633 0,-0.34814 -0.13103,-0.63298 -0.29094,-0.63298 -0.49154,0 -2.20999,-1.39892 -2.43396,-1.98139 -0.11638,-0.30263 -0.48909,-0.55054 -0.82784,-0.55054 -0.33877,0 -0.77811,-0.31236 -0.97668,-0.69399 -0.19831,-0.38106 -0.26475,-0.54534 -0.17365,-0.56539 z m 77.25668,3.47235 c 0.0527,-0.0182 0.16589,0.0897 0.33898,0.31897 0.21828,0.28894 0.39688,0.76366 0.39688,1.05497 0,0.2913 0.17859,0.76603 0.39687,1.05497 0.21828,0.28894 0.39688,0.69222 0.39688,0.89591 0,0.83185 -0.43162,0.2668 -0.99219,-1.29895 -0.47715,-1.33278 -0.6536,-1.9859 -0.53742,-2.02587 z m 11.40238,7.13344 c 0.42466,0.0416 0.87651,0.35707 1.33377,0.9536 0.65159,0.85006 0.77401,1.36009 0.89244,3.71301 0.15856,3.15014 -0.10645,4.22586 -1.3343,5.41994 -1.0252,0.99699 -0.86947,1.00008 -1.78488,-0.0395 -1.22872,-1.39545 -1.70083,-5.56091 -0.90744,-8.00793 0.45958,-1.41746 1.09263,-2.1084 1.80041,-2.03905 z m 0.0553,0.90497 c -0.30903,0.007 -0.63727,0.42623 -1.02732,1.2602 -0.65349,1.39728 -0.66926,4.944 -0.029,6.50293 0.71155,1.73203 1.82902,1.15402 2.24536,-1.1613 0.39619,-2.20326 0.31166,-3.84135 -0.27749,-5.38284 -0.31316,-0.81922 -0.60256,-1.22546 -0.9116,-1.21899 z m -62.33097,0.7204 c 0.1541,0 0.28009,0.18989 0.28009,0.422 0,0.23209 -0.0526,0.42198 -0.11679,0.42198 -0.0642,0 -0.19018,-0.18989 -0.28008,-0.42198 -0.0899,-0.23211 -0.0373,-0.422 0.11678,-0.422 z m 50.00877,0.84398 c 0.45521,0 1.07177,2.41545 1.07177,4.1993 0,1.28828 0.10475,1.70857 0.42529,1.70857 0.29192,0 0.3705,0.22557 0.25165,0.71952 -0.0952,0.39566 0.0323,1.32743 0.28321,2.07038 0.42926,1.27243 0.42981,1.41423 0.006,2.4454 -0.24736,0.60209 -0.60706,1.09456 -0.79944,1.09456 -0.19237,0 -0.57697,0.40175 -0.8542,0.89259 -0.27721,0.49083 -0.77878,1.06032 -1.11467,1.26514 -0.59531,0.36307 -0.59933,0.40241 -0.16227,1.58247 0.31758,0.85729 0.39701,1.6489 0.27184,2.71326 -0.14444,1.22794 -0.32068,1.55385 -0.96221,1.77863 -0.65212,0.22844 -0.7855,0.48411 -0.7855,1.50745 0,0.67783 0.11906,1.23218 0.26459,1.23218 0.14552,0 0.26458,0.3798 0.26458,0.84399 0,0.46418 0.16457,0.84398 0.36586,0.84398 0.4063,0 0.67943,-1.23882 0.69713,-3.16493 0.014,-1.52886 0.3611,-0.76493 0.65783,1.4473 0.17431,1.29959 0.10486,1.56305 -0.68315,2.5888 -0.7343,0.95584 -0.96605,1.06358 -1.4206,0.66266 -0.29869,-0.26349 -0.57674,-0.50003 -0.61751,-0.52666 -0.041,-0.0266 -0.12369,-0.45727 -0.18399,-0.95689 -0.0603,-0.49961 -0.29474,-1.20364 -0.52088,-1.56434 -0.22617,-0.36068 -0.41135,-0.82092 -0.41135,-1.02201 0,-0.20108 -0.23812,-0.33658 -0.52916,-0.30165 -0.29105,0.0349 -0.52917,0.30786 -0.52917,0.6066 0,0.29875 -0.1786,0.54315 -0.39688,0.54315 -0.21828,0 -0.39687,0.20093 -0.39687,0.44673 0,0.24577 -0.13145,0.31694 -0.2925,0.15821 -0.20931,-0.20627 -0.20153,-0.3788 0.0279,-0.60497 0.2469,-0.24318 0.2487,-0.38837 0.007,-0.62639 -0.18055,-0.17794 -0.24728,-0.73409 -0.15708,-1.30718 0.12178,-0.77384 0.067,-0.94246 -0.24339,-0.75249 -0.22008,0.13461 -0.39997,0.50911 -0.39997,0.83244 0,0.32333 -0.14886,0.5402 -0.33073,0.48216 -0.20633,-0.0658 -0.30732,0.29139 -0.26821,0.94948 0.0573,0.96363 0.0321,0.99101 -0.29353,0.31649 -0.19606,-0.40618 -0.533,-0.73848 -0.74827,-0.73848 -0.77375,0 -0.99051,-1.90933 -0.84958,-7.47631 0.0751,-2.96667 0.18818,-5.6393 0.25117,-5.93919 0.0629,-0.29988 0.56259,-0.8744 1.11051,-1.27669 0.9479,-0.69593 3.62821,-3.31997 6.43786,-6.30183 0.71075,-0.75431 1.41118,-1.37146 1.55649,-1.37146 z m 4.40797,0.1599 c 0.0316,-8.5e-4 0.0665,0.0159 0.10284,0.051 0.14553,0.14339 0.26459,0.54612 0.26459,0.89426 0,0.34811 -0.11906,0.51509 -0.26459,0.37171 -0.14552,-0.14339 -0.26458,-0.54528 -0.26458,-0.89343 0,-0.26106 0.0669,-0.4207 0.16174,-0.42364 z m -4.1372,1.16129 c -0.10062,0.0128 -0.24982,0.17772 -0.45474,0.46814 -0.44921,0.6366 -2.09817,2.24829 -4.56148,4.4581 -0.65257,0.58543 -1.33382,1.29984 -1.51411,1.58741 -0.18031,0.28756 -0.73948,0.92775 -1.2423,1.42338 -0.97216,0.95826 -1.14469,1.71684 -1.18287,5.19494 -0.0122,1.10245 0.0645,1.99331 0.17052,1.98054 0.106,-0.0128 0.60947,-0.47757 1.11879,-1.03106 0.50933,-0.55347 1.06122,-1.0175 1.2268,-1.03025 0.16557,-0.0128 0.90702,-0.68936 1.64745,-1.50169 0.74041,-0.81232 1.43867,-1.47682 1.55133,-1.47697 0.11263,-1.3e-4 0.90042,-0.87131 1.75079,-1.93604 1.09527,-1.37149 1.51035,-2.15499 1.42317,-2.68688 -0.0677,-0.41293 -0.0227,-1.76249 0.0997,-2.99927 0.17463,-1.76185 0.18833,-2.47721 -0.0331,-2.45035 z m 5.179,2.47673 c 0.13351,0 0.40862,1.03403 0.78031,2.93414 0.17743,0.90694 0.15496,0.95926 -0.18294,0.42035 -0.37343,-0.59561 -0.86481,-3.35449 -0.59737,-3.35449 z m 2.06346,4.78694 c 0.0103,-0.003 0.0217,-0.003 0.0341,8.5e-4 0.0601,0.0175 0.14692,0.11209 0.27078,0.2761 0.21828,0.28894 0.39687,0.90561 0.39687,1.36982 0,0.70235 -0.0666,0.75533 -0.39687,0.31815 -0.21829,-0.28894 -0.39688,-0.90482 -0.39688,-1.369 0,-0.3841 0.0198,-0.57406 0.092,-0.59589 z m -6.70604,0.31402 c -0.25141,0.0301 -0.69768,0.48077 -1.29813,1.33438 -0.53059,0.75433 -1.70937,2.03611 -2.61947,2.84843 -0.91011,0.81234 -2.44276,2.28402 -3.40598,3.27042 -0.96324,0.98641 -1.83983,1.79346 -1.94821,1.79346 -0.10837,0 -0.27328,0.31693 -0.36639,0.70387 -0.25024,1.04013 0.23238,1.577 0.71935,0.8003 0.22762,-0.36305 0.47675,-0.66019 0.55345,-0.66019 0.0767,0 0.57804,-0.47474 1.11414,-1.05497 0.5361,-0.58023 1.32053,-1.05498 1.74355,-1.05498 0.5588,0 0.88654,-0.31737 1.19787,-1.16046 0.23567,-0.63826 1.32968,-2.1103 2.43135,-3.27126 1.1017,-1.16097 2.04341,-2.44278 2.09238,-2.84843 0.0596,-0.49305 -0.0185,-0.72405 -0.21391,-0.70057 z m 0.74361,4.20836 c 0.0963,0.0143 0.25781,0.14657 0.41288,0.35194 0.43005,0.56923 0.28266,1.9269 -0.33329,3.07426 -0.22683,0.4225 -0.44538,0.76816 -0.48628,0.76816 -0.11047,0 0.20815,-3.96424 0.33485,-4.16634 0.0151,-0.0238 0.0397,-0.0325 0.0718,-0.0281 z m -1.2578,2.92839 c 0.15406,0 0.20669,0.18989 0.11678,0.42198 -0.0899,0.2321 -0.21587,0.42199 -0.28009,0.42199 -0.0642,0 -0.11678,-0.18989 -0.11678,-0.42199 0,-0.23209 0.12597,-0.42198 0.28009,-0.42198 z m -2.77813,0.58518 c -0.2327,-0.0178 -0.31681,0.44562 -0.21394,1.30388 0.11938,0.99594 0.56859,1.38855 0.92967,0.81266 0.20026,-0.31943 -0.077,-1.55471 -0.43461,-1.93522 -0.10917,-0.11611 -0.20354,-0.17537 -0.28112,-0.18132 z m -68.60037,8.12495 c 0.0209,-0.003 0.0423,-0.003 0.0646,0.001 0.14849,0.0308 0.32825,0.23634 0.54208,0.61815 0.50911,0.909 0.5088,0.91008 -0.15192,0.59094 -0.85953,-0.41517 -0.94546,-0.56328 -0.62426,-1.07557 0.0503,-0.0803 0.10695,-0.12537 0.16949,-0.13526 z m 3.63182,2.26573 c 0.0717,0.001 0.14428,0.14067 0.25839,0.41787 0.1433,0.34812 0.26157,0.87035 0.26459,1.16047 0.005,0.68321 -0.38293,0.67616 -0.74208,-0.0143 -0.18111,-0.34807 -0.19285,-0.76286 -0.0326,-1.16049 0.10925,-0.27093 0.18002,-0.40587 0.25167,-0.40385 z m 48.5365,7.59169 c -0.72147,0 -0.92424,0.23721 -1.31051,1.53549 -0.53117,1.78535 -0.42442,4.11244 0.26512,5.79083 1.03655,2.52317 2.51301,0.77838 2.51301,-2.9696 0,-3.15425 -0.40516,-4.35672 -1.46762,-4.35672 z m 3.06027,2.53194 c 0.12126,0 0.39079,0.52223 0.59893,1.16049 1.40616,4.3119 1.77716,5.5581 1.77716,5.96967 0,1.03446 -0.55356,0.37837 -0.70591,-0.83657 -0.0898,-0.71623 -0.32486,-1.4014 -0.52245,-1.5223 -0.19759,-0.12089 -0.35914,-0.65081 -0.35914,-1.17778 0,-0.527 -0.1659,-1.17753 -0.36846,-1.44564 -0.43196,-0.57186 -0.74029,-2.14787 -0.42013,-2.14787 z m 36.06752,1.30141 c 0.20929,1e-5 0.4557,0.0182 0.74827,0.052 1.26484,0.14594 1.61499,0.36576 2.0805,1.30965 0.43121,0.87436 0.78927,1.13492 1.56011,1.13492 1.03166,0 2.58991,1.70215 2.28306,2.49404 v 8.4e-4 c -0.24016,0.61977 -1.14549,0.0254 -1.28831,-0.84563 -0.094,-0.57313 -0.36764,-0.80442 -0.9503,-0.80442 -0.45022,0 -0.81857,0.18989 -0.81857,0.42199 0,0.91361 -0.80245,0.35293 -1.18546,-0.82832 -0.28982,-0.89392 -0.71472,-1.38392 -1.48981,-1.71681 -1.2237,-0.52553 -1.82264,-0.31714 -1.82264,0.63299 0,0.84467 -1.14964,0.85386 -1.5875,0.0128 -0.27784,-0.53393 -0.22569,-0.63298 0.33229,-0.63298 0.3638,0 0.82005,-0.30498 1.01388,-0.6775 0.20344,-0.39098 0.49665,-0.55306 1.12448,-0.55305 z m -65.54473,4.18448 c -0.20254,0 -0.44757,0.50214 -0.54417,1.11595 -0.22788,1.4481 0.23149,2.23477 0.62323,1.06734 0.3982,-1.18674 0.36213,-2.18329 -0.0791,-2.18329 z m 57.64135,0.89259 c 0.13491,0 0.11832,0.12409 -0.12351,0.37337 -0.21828,0.225 -0.57547,0.39848 -0.79375,0.38573 -0.2617,-0.0159 -0.21661,-0.14658 0.13229,-0.38573 0.36367,-0.24927 0.65006,-0.37337 0.78497,-0.37337 z m -1.64796,0.79536 c 0.15595,0 0.10147,0.3323 -0.12094,0.73848 -0.2223,0.40616 -0.49828,1.49806 -0.61337,2.42644 -0.11967,0.96542 -0.25591,1.3718 -0.31782,0.94948 -0.13332,-0.90962 -0.29329,-0.91681 -1.3689,-0.061 -0.88186,0.70167 -1.34618,2.00673 -1.34618,3.78143 0,0.56513 -0.11906,1.02695 -0.26458,1.02695 -0.14552,0 -0.264,-0.71212 -0.26199,-1.58246 0.003,-1.24971 0.19693,-1.8834 0.92604,-3.01328 1.00674,-1.5602 1.14827,-2.15609 0.51107,-2.15609 -0.22688,0 -0.35115,-0.15871 -0.27596,-0.35277 0.16785,-0.43314 0.96547,-0.36751 1.4604,0.12026 0.25362,0.25004 0.52324,0.0174 0.87746,-0.75828 0.28116,-0.61562 0.63883,-1.11925 0.79477,-1.11925 z m -8.09715,0.14594 c 0.0401,-0.009 0.068,0.14529 0.076,0.45249 0.0114,0.44478 -0.0511,0.69407 -0.13901,0.55387 -0.0879,-0.14019 -0.0976,-0.50476 -0.0212,-0.80938 0.0317,-0.12616 0.0602,-0.19117 0.0842,-0.19698 z m -46.0576,0.45002 c -0.0613,-0.009 -0.11086,8.5e-4 -0.1452,0.0347 -0.38674,0.38118 0.30858,2.31181 1.49344,4.14736 0.5512,0.85385 1.08219,1.55196 1.18027,1.55196 0.26649,0 -0.19219,-2.88033 -0.57618,-3.61824 -0.51146,-0.9829 -1.5233,-2.04662 -1.95233,-2.11572 z m 0.0853,5.52461 c -0.14563,-0.003 -0.23307,0.15039 -0.23307,0.43352 0,0.34086 0.17576,0.61981 0.39068,0.61981 0.21495,0 0.58584,0.47472 0.82423,1.05497 0.44474,1.08259 0.6809,1.26709 0.99062,0.7731 0.23532,-0.37534 -0.60359,-1.82807 -1.05573,-1.82807 -0.19571,0 -0.35605,-0.16941 -0.35605,-0.37668 0,-0.20727 -0.1786,-0.48613 -0.39688,-0.61978 -0.0604,-0.037 -0.11528,-0.0559 -0.1638,-0.0569 z m 5.38672,3.64049 c 0.0519,-0.0189 0.14388,0.11164 0.30491,0.3816 0.20264,0.33986 0.44905,1.04542 0.54723,1.56763 0.10441,0.55531 0.0647,0.94948 -0.0951,0.94948 -0.34266,0 -0.82063,-1.38866 -0.82063,-2.38358 0,-0.32828 0.0116,-0.49637 0.0635,-0.51513 z m -2.91661,6.71557 c 0.19238,0 0.47575,0.13444 0.73639,0.40303 0.32266,0.33259 0.28834,0.41062 -0.18293,0.41539 -0.31882,0.003 -0.6532,-0.1833 -0.74311,-0.41539 -0.10409,-0.26864 -0.003,-0.40303 0.18965,-0.40303 z m 61.39359,3.98995 -0.19018,1.05497 c -0.10475,0.58024 -0.25093,2.09942 -0.32454,3.37592 -0.16142,2.79782 0.41844,4.29253 1.9725,5.08448 1.29004,0.65741 1.62447,1.16358 1.11828,1.69373 -0.54284,0.56858 -2.16876,0.0753 -2.6076,-0.79123 -0.19828,-0.39157 -0.59933,-1.5501 -0.8914,-2.57479 -0.67406,-2.36472 -0.50631,-5.66888 0.35398,-6.97685 z"
       id="path6978"
       inkscape:connector-curvature="0" />
  </g>
</svg>
