<?xml version="1.0" encoding="UTF-8" standalone="no"?>
<svg
   xmlns:dc="http://purl.org/dc/elements/1.1/"
   xmlns:cc="http://creativecommons.org/ns#"
   xmlns:rdf="http://www.w3.org/1999/02/22-rdf-syntax-ns#"
   xmlns:svg="http://www.w3.org/2000/svg"
   xmlns="http://www.w3.org/2000/svg"
   xmlns:sodipodi="http://sodipodi.sourceforge.net/DTD/sodipodi-0.dtd"
   xmlns:inkscape="http://www.inkscape.org/namespaces/inkscape"
   id="svg5218"
   sodipodi:docname="rg1024-Cartoon-Camera.svg"
   viewBox="0 0 431.2 431.19999"
   sodipodi:version="0.32"
   version="1.0"
   inkscape:output_extension="org.inkscape.output.svg.inkscape"
   inkscape:version="1.0.2-2 (e86c870879, 2021-01-15)"
   width="431.20001"
   height="431.20001">
  <defs
     id="defs3">
    <linearGradient
       id="linearGradient7139"
       y2="294.10999"
       gradientUnits="userSpaceOnUse"
       x2="63.106998"
       y1="294.10999"
       x1="97.402"
       inkscape:collect="always">
      <stop
         id="stop6276"
         style="stop-color:#cccccc"
         offset="0" />
      <stop
         id="stop6278"
         style="stop-color:#f2f2f2"
         offset="1" />
    </linearGradient>
    <filter
       id="filter9197"
       inkscape:collect="always">
      <feGaussianBlur
         id="feGaussianBlur9199"
         stdDeviation="0.85340712"
         inkscape:collect="always" />
    </filter>
  </defs>
  <sodipodi:namedview
     id="base"
     bordercolor="#666666"
     inkscape:pageshadow="2"
     inkscape:window-y="0"
     pagecolor="#ffffff"
     inkscape:window-height="944"
     inkscape:zoom="0.5"
     inkscape:window-x="0"
     showgrid="false"
     borderopacity="1.0"
     inkscape:current-layer="layer1"
     inkscape:cx="131.61538"
     inkscape:cy="261.31613"
     showguides="true"
     inkscape:guide-bbox="true"
     inkscape:window-width="1272"
     inkscape:pageopacity="0.0"
     inkscape:document-units="mm"
     inkscape:document-rotation="0"
     inkscape:window-maximized="0" />
  <g
     id="layer1"
     inkscape:label="Layer 1"
     inkscape:groupmode="layer"
     transform="translate(-45.158,-89.355)">
    <path
       id="path9207"
       style="fill:#1a1a1a;fill-rule:evenodd;stroke-width:1.22523"
       d="m 160.52971,219.21557 -93.122762,-6.01982 c 0,0 17.138956,-37.03462 16.567957,-46.50719 -0.570998,-9.47258 66.844825,0.85568 66.844825,0.85568 0,0 -9.13997,29.28843 1.71,41.34307 10.85997,12.05464 9.13997,14.6367 9.13997,14.6367"
       inkscape:export-ydpi="90"
       inkscape:export-filename="/home/roger/mis-dibujos/open/path9303.png"
       inkscape:export-xdpi="90" />
    <path
       id="rect5602"
       style="fill:#5184d6;stroke-width:1.22523;stroke-opacity:0"
       d="m 259.28945,91.48591 c -31.29992,0.795637 -58.06985,15.84517 -90.18976,27.01411 -3.3,11.03382 -5.30999,30.36929 -6.56999,52.21176 -47.84987,3.22758 -86.281775,9.15732 -99.478741,18.41973 -19.39495,34.15231 -22.659941,240.77757 0,311.84441 47.438881,12.47498 355.339081,32.15572 392.988981,0 16.12996,-66.1429 27.54993,-262.93529 0,-311.84441 0.68,-11.04884 -68.23982,-18.61489 -148.82961,-20.77662 -3.62999,-30.62449 -8.42998,-58.71196 -14.70996,-72.239277 -11.79997,-3.574359 -22.76995,-4.893914 -33.20992,-4.629703 z"
       inkscape:export-ydpi="90"
       inkscape:export-filename="/home/roger/mis-dibujos/open/path9303.png"
       inkscape:export-xdpi="90" />
    <path
       id="path6156"
       style="fill:#4471c9;stroke-width:1.22523;stroke-opacity:0"
       d="m 457.60894,187.94556 c 0.34,59.11728 -4.61999,147.6581 -17.77995,217.98935 -49.99988,35.81865 -99.23975,45.54643 -148.53962,41.11788 -15.19996,17.51902 -34.18991,27.98238 -54.77986,27.98238 -32.56992,0 -61.10984,-26.10587 -76.9798,-65.12208 -35.36991,-14.3815 -71.063817,-30.45936 -107.399723,-44.34547 2.381994,37.62009 5.730986,112.69514 12.563968,134.11727 47.445875,12.47498 355.269085,32.15572 392.918985,0 16.12996,-66.1429 27.54993,-262.83021 0,-311.73933 z"
       inkscape:export-ydpi="90"
       inkscape:export-filename="/home/roger/mis-dibujos/open/path9303.png"
       inkscape:export-xdpi="90" />
    <g
       id="g7125"
       inkscape:export-ydpi="90"
       inkscape:export-xdpi="90"
       inkscape:export-filename="/home/roger/mis-dibujos/open/path9303.png"
       transform="matrix(2.2851941,0,0,3.4448052,197.65961,-781.87511)">
      <path
         id="path6826"
         sodipodi:nodetypes="ccccc"
         style="fill:none;stroke:#4471c9;stroke-width:2.9502;stroke-linecap:round;stroke-linejoin:round"
         d="m 62.273,286.45 c 10.214,-3.84 25.953,-3.28 34.92,0 5.197,1.9 2.097,12.9 0,16.72 -8.967,0.49 -23.459,-0.06 -34.92,0 -1.786,-3.82 -5.174,-14.78 0,-16.72 z" />
      <path
         id="rect6174"
         sodipodi:nodetypes="ccccc"
         style="fill:url(#linearGradient7139);stroke:#666666;stroke-width:0.30947;stroke-linecap:round;stroke-linejoin:round"
         d="m 62.063,286.2 c 10.13,-4.25 25.741,-3.64 34.634,0 5.153,2.11 2.08,14.31 0,18.55 -8.893,0.55 -23.267,-0.07 -34.634,0 -1.772,-4.24 -5.132,-16.39 0,-18.55 z" />
      <path
         id="path6282"
         style="fill:#cccccc;fill-rule:evenodd;stroke:#cccccc;stroke-width:1.5944;stroke-linecap:round"
         d="m 69.696,288.58 v 12.16" />
      <path
         id="path6168"
         style="fill:none;stroke:#ffffff;stroke-width:1.6714;stroke-linecap:round"
         d="M 66.787,288.05 V 299.7" />
      <path
         id="path6979"
         style="fill:#cccccc;fill-rule:evenodd;stroke:#b3b3b3;stroke-width:1.5944;stroke-linecap:round"
         d="m 75.946,288.33 v 12.16" />
      <path
         id="path6981"
         style="fill:none;stroke:#ffffff;stroke-width:1.6714;stroke-linecap:round"
         d="m 72.787,288.3 v 11.65" />
      <path
         id="path6983"
         style="fill:#cccccc;fill-rule:evenodd;stroke:#b3b3b3;stroke-width:1.5944;stroke-linecap:round"
         d="m 82.446,288.58 v 12.16" />
      <path
         id="path6985"
         style="fill:none;stroke:#ffffff;stroke-width:1.6714;stroke-linecap:round"
         d="m 79.537,287.8 v 11.65" />
      <path
         id="path6987"
         style="fill:#cccccc;fill-rule:evenodd;stroke:#808080;stroke-width:1.5944;stroke-linecap:round"
         d="m 88.696,288.33 v 12.16" />
      <path
         id="path6989"
         style="fill:none;stroke:#ffffff;stroke-width:1.6714;stroke-linecap:round"
         d="m 85.787,287.8 v 11.65" />
      <path
         id="path6991"
         sodipodi:nodetypes="ccccc"
         style="fill:#808080;fill-rule:evenodd"
         d="m 94.156,286.97 c -0.998,0.02 -1.791,0.84 -1.781,1.84 V 301 c 1.335,4.11 5.814,-2.36 5.555,-10.37 -0.464,-2.1 -1.405,-3.28 -3.774,-3.66 z" />
      <path
         id="path6993"
         style="fill:none;stroke:#ffffff;stroke-width:1.6714;stroke-linecap:round"
         d="m 91.287,288.3 v 11.65" />
    </g>
    <path
       id="rect9201"
       style="fill:#2b2b2d;stroke:#c4c5c6;stroke-width:1.73652;stroke-linecap:round;stroke-linejoin:round"
       d="m 187.37964,135.68876 c 37.6899,-9.45756 76.5698,-6.86048 81.12979,-6.03482 7.50998,11.33406 9.78997,48.09847 2.27999,59.43253 -26.25993,1.69636 -52.57986,-0.88571 -83.40978,0 -7.50998,-11.33406 -7.50998,-42.07865 0,-53.39771 z"
       inkscape:export-ydpi="90"
       sodipodi:nodetypes="ccccc"
       inkscape:export-filename="/home/roger/mis-dibujos/open/path9303.png"
       inkscape:export-xdpi="90" />
    <ellipse
       id="path9226"
       style="fill:#4471c9;stroke-width:3.37919"
       inkscape:export-ydpi="90"
       inkscape:export-filename="/home/roger/mis-dibujos/open/path9303.png"
       inkscape:export-xdpi="90"
       cx="233.65979"
       cy="343.25473"
       rx="94.266029"
       ry="142.09874" />
    <g
       id="g9228"
       inkscape:export-ydpi="90"
       inkscape:export-xdpi="90"
       inkscape:export-filename="/home/roger/mis-dibujos/open/path9303.png"
       transform="matrix(2.2851941,0,0,3.4448052,-58.278727,-780.14873)">
      <circle
         id="path6128"
         style="fill:#333333"
         transform="matrix(1.0571,0,0,1.0571,-25.005,31.091)"
         cx="144.70435"
         cy="277.82773"
         r="26.516504" />
      <path
         id="path5606"
         style="fill:#c4c5c6;stroke:#333333;stroke-width:0.41541;stroke-linecap:square;stroke-linejoin:round"
         d="m 128.03,290.76 c -18.78,0 -34.033,15.25 -34.033,34.04 0,18.78 15.253,34.03 34.033,34.03 18.79,0 34.01,-15.25 34.01,-34.03 0,-18.79 -15.22,-34.04 -34.01,-34.04 z m 0,6.81 c 15.03,0 27.2,12.2 27.2,27.23 0,15.02 -12.17,27.23 -27.2,27.23 -15.02,0 -27.23,-12.21 -27.23,-27.23 0,-15.03 12.21,-27.23 27.23,-27.23 z" />
      <path
         id="path6134"
         style="fill:#666666;filter:url(#filter9197)"
         d="m 152.93,312.97 c 0.66,2.44 1.03,4.99 1.03,7.63 0,16.03 -13.03,29.06 -29.06,29.06 -7.31,0 -13.99,-2.73 -19.09,-7.19 5.14,6.23 12.92,10.22 21.62,10.22 15.48,0 28.03,-12.56 28.03,-28.03 0,-4.17 -0.89,-8.13 -2.53,-11.69 z" />
      <path
         id="path6148"
         sodipodi:nodetypes="ccc"
         style="fill:#e6e6e6;fill-rule:evenodd;stroke:#000000;stroke-width:0.43669px"
         d="m 118.52,308.58 c 0,0 29.59,-14.64 29.8,10.61 -15.62,-9.38 -28.79,-10.1 -29.8,-10.61 z" />
      <ellipse
         id="path6152"
         style="fill:#ffffff"
         transform="matrix(0.62469,0,0,0.47596,28.378,171.34)"
         cx="179.95868"
         cy="311.49106"
         rx="2.8284271"
         ry="3.7123106" />
      <ellipse
         id="path6154"
         style="fill:#ffffff"
         transform="matrix(0.99969,0,0,0.76167,-42.996,73.854)"
         cx="179.95868"
         cy="311.49106"
         rx="2.8284271"
         ry="3.7123106" />
    </g>
    <path
       id="path9236"
       style="fill:#4471c9;fill-rule:evenodd;stroke-width:1.22523"
       d="m 329.63927,389.73695 c 0,0 -28.56993,108.50679 -55.41986,88.70595 -26.84993,-19.81585 90.83977,21.52722 90.83977,21.52722 0,0 -43.98989,-96.45215 -35.41991,-110.23317 z"
       inkscape:export-ydpi="90"
       inkscape:export-filename="/home/roger/mis-dibujos/open/path9303.png"
       inkscape:export-xdpi="90" />
    <path
       id="path9238"
       style="fill:#77a7f8;fill-rule:evenodd;stroke-width:1.22523"
       d="m 190.80963,221.79763 c 0,0 43.98989,-43.91012 92.54976,6.03483 -43.41989,-30.99979 -93.11976,-3.43775 -92.54976,-6.03483 z"
       inkscape:export-ydpi="90"
       sodipodi:nodetypes="ccc"
       inkscape:export-filename="/home/roger/mis-dibujos/open/path9303.png"
       inkscape:export-xdpi="90" />
    <path
       id="path9240"
       style="fill:#4d6da2;fill-rule:evenodd;stroke-width:1.22523"
       d="m 191.61963,457.21592 c 0,0 43.98988,43.92513 92.54976,-6.01981 -43.41989,30.99979 -93.11976,3.43775 -92.54976,6.01981 z"
       inkscape:export-ydpi="90"
       sodipodi:nodetypes="ccc"
       inkscape:export-filename="/home/roger/mis-dibujos/open/path9303.png"
       inkscape:export-xdpi="90" />
    <path
       id="path9242"
       style="fill:#77a7f8;fill-rule:evenodd;stroke-width:1.22523"
       d="m 70.991939,199.69996 c -4.03999,6.07986 -14.542963,28.0124 -8.887977,32.87629 5.655985,4.87891 74.335808,-10.95876 74.335808,-10.95876 0,0 24.22994,-15.83767 58.97985,-21.91753 34.73991,-6.09487 -127.659673,-2.43194 -124.429681,0 z"
       inkscape:export-ydpi="90"
       sodipodi:nodetypes="cscsc"
       inkscape:export-filename="/home/roger/mis-dibujos/open/path9303.png"
       inkscape:export-xdpi="90" />
    <path
       id="path9244"
       style="fill:#77a7f8;fill-rule:evenodd;stroke-width:1.22523"
       d="m 283.47939,203.34788 c 0,0 30.69992,12.17474 33.12991,42.6341 2.42,30.44435 2.42,-56.02481 2.42,-56.02481 L 294.78936,178.9984 c 0,0 -4.03999,25.56545 -11.30997,24.34948 z"
       inkscape:export-ydpi="90"
       sodipodi:nodetypes="csccc"
       inkscape:export-filename="/home/roger/mis-dibujos/open/path9303.png"
       inkscape:export-xdpi="90" />
    <path
       id="path9246"
       style="fill:#ffffff;stroke:#c4c5c6;stroke-width:1.73652;stroke-linecap:round;stroke-linejoin:round"
       d="m 205.73959,149.24461 c 20.01995,-5.16413 40.6599,-3.75301 43.07989,-3.28763 3.98999,6.18494 5.20999,26.24098 1.22,32.42593 -13.94997,0.93075 -27.91993,-0.48038 -44.29989,0 -3.98999,-6.18495 -3.98999,-22.95336 0,-29.1383 z"
       inkscape:export-ydpi="90"
       sodipodi:nodetypes="ccccc"
       inkscape:export-filename="/home/roger/mis-dibujos/open/path9303.png"
       inkscape:export-xdpi="90" />
    <g
       id="g9276"
       inkscape:export-ydpi="90"
       inkscape:export-xdpi="90"
       inkscape:export-filename="/home/roger/mis-dibujos/open/path9303.png"
       transform="matrix(2.2851941,0,0,3.4448052,-55.855733,-764.92655)">
      <path
         id="rect7063"
         sodipodi:nodetypes="ccccccccc"
         style="fill:#4d4d4d"
         d="M 60.133,258.34 H 89.55 c 2.732,0 4.932,4.2 4.932,6.93 v 2.63 c 0,2.73 -2.2,2.93 -4.932,2.93 H 60.133 c -2.732,0 -4.932,-0.2 -4.932,-2.93 v -2.63 c 0,-2.73 2.2,-6.93 4.932,-6.93 z" />
      <path
         id="path9259"
         style="fill:none;stroke:#808080;stroke-width:0.43669px"
         d="m 72.616,258.81 c 0,0 0.5,8.25 -0.25,8.63" />
      <path
         id="path9261"
         style="fill:none;stroke:#808080;stroke-width:0.43669px"
         d="m 68.75,258.74 c 0,0 -2.25,6.62 -0.75,8.5" />
      <path
         id="path9263"
         style="fill:none;stroke:#999999;stroke-width:0.43669px"
         d="m 63.875,259.36 c 0,0 -2.375,4.75 -0.5,7.38" />
      <path
         id="path9265"
         style="fill:none;stroke:#e6e6e6;stroke-width:0.43669px"
         d="m 59.375,259.49 c 0,0 -1.75,6.25 -0.625,7.12" />
      <path
         id="path9267"
         style="fill:none;stroke:#333333;stroke-width:0.43669px"
         d="m 80.47,259.09 c 0,0 2.25,6.63 0.75,8.5" />
      <path
         id="path9269"
         style="fill:none;stroke:#333333;stroke-width:0.43669px"
         d="m 85.345,259.72 c 0,0 2.375,4.75 0.5,7.37" />
      <path
         id="path9271"
         style="fill:none;stroke:#1a1a1a;stroke-width:0.43669px"
         d="m 89.845,259.84 c 0,0 1.75,6.25 0.625,7.13" />
      <path
         id="path9273"
         style="fill:none;stroke:#808080;stroke-width:0.43669px"
         d="m 76.065,259.16 c 0,0 -0.5,8.25 0.25,8.63" />
    </g>
    <ellipse
       id="path9287"
       style="fill:#e6e6e6;stroke-width:2.17328"
       inkscape:export-ydpi="90"
       inkscape:export-filename="/home/roger/mis-dibujos/open/path9303.png"
       inkscape:export-xdpi="90"
       cx="113.81142"
       cy="127.83545"
       rx="35.549278"
       ry="1.8268573" />
    <path
       id="path9289"
       style="fill:#808080;fill-rule:evenodd;stroke-width:1.22523"
       d="m 187.37964,187.36009 c 0,0 13.99996,-9.90792 16.27996,-6.89051 2.28999,3.01741 -7.22999,-13.34567 0.28999,-32.72617 -0.85999,-6.89052 -15.99995,-9.3675 -15.99995,-9.3675 0,0 -11.13997,14.96697 -0.57,48.98418 z"
       inkscape:export-ydpi="90"
       sodipodi:nodetypes="csccc"
       inkscape:export-filename="/home/roger/mis-dibujos/open/path9303.png"
       inkscape:export-xdpi="90" />
    <path
       id="path9291"
       style="fill:#808080;fill-rule:evenodd;stroke-width:1.22523"
       d="m 269.90942,188.47098 c 0,0 -15.87995,-11.01881 -18.15995,-8.0014 -2.28999,3.01741 6.65998,-18.5098 -0.86,-37.89031 0.86,-6.89051 15.99996,-11.19895 15.99996,-11.19895 0,0 13.58997,23.07345 3.01999,57.09066 z"
       inkscape:export-ydpi="90"
       sodipodi:nodetypes="csccc"
       inkscape:export-filename="/home/roger/mis-dibujos/open/path9303.png"
       inkscape:export-xdpi="90" />
    <path
       id="path9303"
       style="opacity:0.2;fill:#e6e6e6;stroke-width:1.22523"
       d="m 195.71962,143.17976 c 29.17992,-6.83047 59.27984,-4.96898 62.79983,-4.35349 5.81999,8.18155 7.58998,34.73779 1.77,42.91933 -20.32995,1.23098 -40.6999,-0.64552 -64.56983,0 -5.80999,-8.18154 -5.80999,-30.3843 0,-38.56584 z"
       inkscape:export-ydpi="90"
       sodipodi:nodetypes="ccccc"
       inkscape:export-xdpi="90" />
  </g>
  <metadata
     id="metadata55">
    <rdf:RDF>
      <cc:Work>
        <dc:format>image/svg+xml</dc:format>
        <dc:type
           rdf:resource="http://purl.org/dc/dcmitype/StillImage" />
        <cc:license
           rdf:resource="http://creativecommons.org/publicdomain/zero/1.0/" />
        <dc:publisher>
          <cc:Agent
             rdf:about="http://openclipart.org/">
            <dc:title>Openclipart</dc:title>
          </cc:Agent>
        </dc:publisher>
        <dc:title>Cartoon Camera</dc:title>
        <dc:date>2008-11-23T10:19:54</dc:date>
        <dc:description />
        <dc:source>https://openclipart.org/detail/20364/cartoon-camera-by-rg1024-20364</dc:source>
        <dc:creator>
          <cc:Agent>
            <dc:title>rg1024</dc:title>
          </cc:Agent>
        </dc:creator>
        <dc:subject>
          <rdf:Bag>
            <rdf:li>camera</rdf:li>
            <rdf:li>cartoon</rdf:li>
            <rdf:li>photo</rdf:li>
            <rdf:li>photography</rdf:li>
          </rdf:Bag>
        </dc:subject>
      </cc:Work>
      <cc:License
         rdf:about="http://creativecommons.org/publicdomain/zero/1.0/">
        <cc:permits
           rdf:resource="http://creativecommons.org/ns#Reproduction" />
        <cc:permits
           rdf:resource="http://creativecommons.org/ns#Distribution" />
        <cc:permits
           rdf:resource="http://creativecommons.org/ns#DerivativeWorks" />
      </cc:License>
    </rdf:RDF>
  </metadata>
</svg>
