<?xml version="1.0" encoding="UTF-8" standalone="no"?>
<svg
   xmlns:dc="http://purl.org/dc/elements/1.1/"
   xmlns:cc="http://creativecommons.org/ns#"
   xmlns:rdf="http://www.w3.org/1999/02/22-rdf-syntax-ns#"
   xmlns:svg="http://www.w3.org/2000/svg"
   xmlns="http://www.w3.org/2000/svg"
   xmlns:sodipodi="http://sodipodi.sourceforge.net/DTD/sodipodi-0.dtd"
   xmlns:inkscape="http://www.inkscape.org/namespaces/inkscape"
   width="398.0932"
   height="398.0932"
   id="svg2"
   version="1.1"
   inkscape:version="1.0.2-2 (e86c870879, 2021-01-15)"
   sodipodi:docname="web_logo.svg">
  <defs
     id="defs4" />
  <sodipodi:namedview
     id="base"
     pagecolor="#ffffff"
     bordercolor="#666666"
     borderopacity="1.0"
     inkscape:pageopacity="0.0"
     inkscape:pageshadow="2"
     inkscape:zoom="0.35"
     inkscape:cx="-363.99998"
     inkscape:cy="27.81295"
     inkscape:document-units="px"
     inkscape:current-layer="layer1"
     showgrid="false"
     inkscape:window-width="1920"
     inkscape:window-height="1057"
     inkscape:window-x="-8"
     inkscape:window-y="-8"
     inkscape:window-maximized="1"
     fit-margin-top="0"
     fit-margin-left="0"
     fit-margin-right="0"
     fit-margin-bottom="0"
     inkscape:document-rotation="0" />
  <metadata
     id="metadata7">
    <rdf:RDF>
      <cc:Work
         rdf:about="">
        <dc:format>image/svg+xml</dc:format>
        <dc:type
           rdf:resource="http://purl.org/dc/dcmitype/StillImage" />
        <dc:title></dc:title>
      </cc:Work>
    </rdf:RDF>
  </metadata>
  <g
     inkscape:label="Layer 1"
     inkscape:groupmode="layer"
     id="layer1"
     transform="translate(-328.07142,-512.44815)">
    <path
       inkscape:connector-curvature="0"
       id="path4495"
       d="m 426.11366,906.58172 -4.4667,-3.90881 7.04018,-13.28302 c 3.87209,-7.30564 6.77783,-13.99061 6.45717,-14.85548 -0.32067,-0.86489 -18.00977,-35.86456 -39.30912,-77.77711 l -38.72613,-76.20462 h -14.51881 -14.51883 v -7.81914 -7.81916 l 14.31387,-0.66471 14.31386,-0.6647 39.19737,-76.92034 39.19735,-76.92035 -3.47217,-6.78708 c -11.88842,-23.23836 -11.39243,-21.49551 -7.12991,-25.05397 6.00096,-5.00976 7.64178,-4.00093 14.13606,8.69145 l 6.05705,11.83779 81.54967,0.59026 81.54967,0.59024 6.56955,-13.58241 6.56957,-13.58241 5.89798,3.46659 5.89801,3.4666 -7.10498,14.44036 -7.10497,14.44035 39.50681,77.66147 39.5068,77.66145 14.32071,0.6647 14.3207,0.66471 v 7.81916 7.81914 h -14.50088 -14.5009 l -38.99572,76.79601 -38.99573,76.79598 6.72069,12.68065 c 3.69637,6.97435 6.72069,13.53063 6.72069,14.56951 0,1.03887 -2.18392,3.51528 -4.85314,5.50315 -4.81171,3.5834 -4.9149,3.49873 -12.08691,-9.92043 l -7.23378,-13.53472 -80.96731,0.0269 -80.96734,0.0269 -6.54704,13.54735 c -3.60087,7.45102 -7.18371,13.52467 -7.96186,13.49701 -0.77815,-0.0276 -3.42483,-1.80929 -5.88153,-3.95914 z m 165.10137,-57.01874 -9.35933,-18.04331 -54.01331,-0.0557 -54.01334,-0.0557 -8.47703,16.40214 c -4.66237,9.02116 -8.84799,17.16567 -9.3014,18.09889 -0.45341,0.93323 31.87894,1.69677 71.84967,1.69677 h 72.67406 l -9.35932,-18.04329 z m -138.14034,-7.70262 c 4.59684,-9.18306 8.35788,-17.2266 8.35788,-17.87452 0,-0.64794 -11.58032,-23.93093 -25.73406,-51.74001 l -25.73406,-50.56196 -18.05617,-0.6505 c -9.93089,-0.35776 -18.05616,0.0654 -18.05616,0.94006 0,2.54235 68.39434,136.5834 69.69159,136.5834 0.64519,0 4.93414,-7.51342 9.53098,-16.69647 z m 194.19785,-52.87949 c 17.1882,-33.91171 31.77902,-63.2209 32.42407,-65.13149 1.01148,-2.99593 -1.3444,-3.38382 -17.1262,-2.81965 l -18.29902,0.65414 -25.77053,50.63361 -25.77054,50.6336 9.23788,17.90979 c 8.20275,15.90293 9.50768,17.45418 11.6455,13.84374 1.32417,-2.23632 16.47066,-31.81201 33.65884,-65.72374 z m -74.37392,27.38289 c 0,-0.80879 -3.80677,-8.96138 -8.45948,-18.11682 l -8.45947,-16.64626 -28.70092,0.58348 -28.70092,0.58351 -8.6203,16.59466 c -4.74117,9.12707 -8.62031,17.01706 -8.62031,17.53331 0,0.51627 20.60131,0.93865 45.7807,0.93865 25.17938,0 45.7807,-0.66174 45.7807,-1.47053 z m -85.74755,-44.24788 c -0.0866,-1.60732 -5.69894,-13.61205 -12.47175,-26.6772 l -12.3142,-23.75481 -18.38047,-0.6505 c -10.10924,-0.35776 -18.38045,-0.15248 -18.38045,0.45635 0,0.60873 6.38637,13.62725 14.19192,28.93001 7.80557,15.30278 17.73812,34.77349 22.07238,43.26828 l 7.88046,15.44506 8.77983,-17.04741 c 4.82891,-9.37607 8.70893,-18.36249 8.62228,-19.96978 z m 119.65167,-6.6418 c 11.45851,-22.57664 21.14382,-41.95935 21.5229,-43.07268 0.38468,-1.12984 -7.49373,-1.73557 -17.83025,-1.3709 l -18.51946,0.65337 -8.1718,15.83654 c -4.49451,8.71009 -10.25288,20.07734 -12.79644,25.26058 l -4.62461,9.424 8.73154,17.131 c 4.80235,9.42204 9.2092,17.14348 9.793,17.15876 0.58379,0.0158 10.4366,-18.44405 21.89512,-41.02067 z m -61.52119,-3.63327 c -1.03461,-2.17752 -5.47564,-10.93513 -9.86894,-19.46137 l -7.98784,-15.50223 -4.7427,8.71514 c -2.60849,4.79334 -7.19384,13.55095 -10.18967,19.46137 l -5.44695,10.74622 h 20.05859 c 18.49306,0 19.91178,-0.30898 18.17751,-3.95913 z m -39.28185,-23.7548 9.10766,-17.53333 h -18.993 c -10.44616,0 -18.62085,0.76356 -18.16597,1.69678 7.85566,16.11679 17.82176,34.68244 18.31064,34.11049 0.34817,-0.40735 4.73146,-8.63062 9.74067,-18.27394 z m 60.989,2.26235 c 4.66237,-9.02117 8.848,-17.16568 9.30141,-18.0989 0.45341,-0.93322 -7.6948,-1.69678 -18.10713,-1.69678 h -18.93151 l 9.35933,18.04331 c 5.14762,9.92383 9.48118,18.06833 9.63008,18.09889 0.14889,0.0306 4.08546,-7.32534 8.74782,-16.34652 z m -131.88004,-87.71658 26.42339,-51.9991 -9.23865,-18.20508 c -5.08129,-10.01278 -9.46584,-17.89945 -9.74347,-17.52591 -0.37845,0.50916 -65.43934,128.7277 -70.08393,138.11768 -0.46161,0.93323 7.49887,1.67759 17.68997,1.65413 l 18.52928,-0.0427 26.42341,-51.99907 z m 38.99916,26.16622 c 7.26043,-14.25497 13.2008,-26.50458 13.2008,-27.22135 0,-2.12736 -16.83048,-35.04524 -17.91419,-35.03745 -1.19853,0.009 -43.79023,84.16542 -43.79023,86.52499 0,0.9086 7.94314,1.65195 17.65141,1.65195 h 17.65138 z m 34.85989,12.90956 c -3.57478,-7.15473 -8.00868,-15.87129 -9.85311,-19.37017 l -3.35353,-6.36159 -9.20238,18.13359 c -5.06132,9.97347 -9.2024,18.69004 -9.2024,19.37017 0,0.68012 8.57499,1.23658 19.05551,1.23658 h 19.05549 z m 67.91183,11.772 c 0,-0.68013 -4.13672,-9.38812 -9.19272,-19.35112 -10.41977,-20.53248 -8.70688,-20.95566 -21.52067,5.31676 l -7.44806,15.27094 h 19.08071 c 10.49442,0 19.08074,-0.55646 19.08074,-1.23658 z m 51.75209,-0.41537 c 0,-2.64607 -42.66677,-86.51464 -44.03042,-86.54902 -1.48349,-0.0373 -17.67399,31.36632 -17.67399,34.28118 0,1.12222 5.89689,13.71329 13.10418,27.98011 l 13.10421,25.93968 h 17.748 c 9.76142,0 17.74802,-0.74335 17.74802,-1.65195 z m 47.38882,-11.52848 c -28.10276,-56.25619 -64.4855,-127.03198 -65.303,-127.03471 -0.54738,-0.002 -4.88622,7.75549 -9.64186,17.23848 -6.24464,12.45209 -8.17993,18.34283 -6.96662,21.20534 0.924,2.17996 12.87636,25.95558 26.5608,52.83474 l 24.88081,48.87116 18.52707,0.0329 18.52707,0.0328 -6.58427,-13.18043 z m -138.57686,-14.60138 9.33047,-18.59662 -19.04174,-0.65105 c -10.47296,-0.35806 -19.40302,-0.24037 -19.8446,0.26153 -0.93843,1.06662 17.75548,37.61321 19.2302,37.59505 0.54738,-0.007 5.19394,-8.38076 10.32567,-18.60891 z m 26.13813,-51.40089 9.02181,-18.09889 h -45.63316 c -25.09824,0 -45.63315,0.47291 -45.63315,1.05093 0,0.57801 4.09777,8.72252 9.10616,18.09889 l 9.10618,17.04798 h 27.50518 27.50521 z m 26.21367,-51.46876 9.03219,-17.53331 -35.72464,-0.61606 c -19.64856,-0.33882 -52.27777,-0.33882 -72.50938,0 l -36.78472,0.61606 9.27389,17.53331 9.2739,17.53332 h 54.20328 54.20329 z"
       style="fill:#1f97fd;stroke-width:1.06611" />
  </g>
</svg>
